<svg width="268" height="79" viewBox="0 0 268 79" fill="none" xmlns="http://www.w3.org/2000/svg">
<path d="M265.583 69.674C265.583 70.6683 265.387 71.6529 265.006 72.5714C264.625 73.4899 264.067 74.3243 263.363 75.027C262.66 75.7297 261.824 76.2869 260.905 76.6667C259.986 77.0464 259.001 77.2414 258.007 77.2403H10.0715C8.06195 77.2424 6.13386 76.4465 4.71125 75.0276C3.28863 73.6087 2.48797 71.683 2.48535 69.674V9.335C2.48797 7.3251 3.28831 5.39838 4.71064 3.97791C6.13298 2.55743 8.06104 1.75931 10.0715 1.75879H258.005C259 1.75879 259.985 1.95477 260.904 2.33553C261.824 2.7163 262.659 3.27439 263.362 3.97793C264.066 4.68147 264.624 5.51668 265.005 6.43586C265.385 7.35503 265.581 8.34017 265.581 9.335L265.583 69.674Z" fill="white"/>
<path d="M258.006 79H10.0714C7.59588 78.9995 5.22168 78.0172 3.46976 76.2687C1.71783 74.5202 0.731273 72.1483 0.726562 69.6735L0.726563 9.33642C0.730225 6.86034 1.71613 4.48682 3.468 2.73652C5.21987 0.986228 7.59465 0.0020899 10.0714 0L258.004 0C260.481 0.00313271 262.855 0.987606 264.607 2.73768C266.358 4.48774 267.345 6.86066 267.349 9.33642V69.6735C267.353 74.8178 263.154 79 258.006 79Z" fill="#A6A6A6"/>
<path d="M265.583 69.674C265.583 70.6683 265.387 71.6529 265.006 72.5714C264.625 73.4899 264.067 74.3243 263.363 75.027C262.66 75.7297 261.824 76.2869 260.905 76.6667C259.986 77.0464 259.001 77.2414 258.007 77.2403H10.0715C8.06195 77.2424 6.13386 76.4465 4.71125 75.0276C3.28863 73.6087 2.48797 71.683 2.48535 69.674V9.335C2.48797 7.3251 3.28831 5.39838 4.71064 3.97791C6.13298 2.55743 8.06104 1.75931 10.0715 1.75879H258.005C259 1.75879 259.985 1.95477 260.904 2.33553C261.824 2.7163 262.659 3.27439 263.362 3.97793C264.066 4.68147 264.624 5.51668 265.005 6.43586C265.385 7.35503 265.581 8.34017 265.581 9.335L265.583 69.674Z" fill="black"/>
<path d="M60.2617 39.0844C60.2044 32.7172 65.4765 29.6196 65.7176 29.4754C62.7318 25.1233 58.1038 24.5286 56.4775 24.4812C52.5906 24.0723 48.8202 26.8064 46.8402 26.8064C44.8207 26.8064 41.7716 24.5207 38.4854 24.5879C34.2566 24.6531 30.3006 27.1008 28.1308 30.9017C23.6531 38.6518 26.9926 50.0408 31.2827 56.3052C33.4287 59.3752 35.9363 62.7988 39.2185 62.6783C42.4296 62.548 43.6291 60.6337 47.5042 60.6337C51.3437 60.6337 52.47 62.6783 55.8175 62.6013C59.2638 62.548 61.4335 59.5195 63.5044 56.4238C65.9844 52.9093 66.9803 49.4442 67.0198 49.2664C66.9408 49.2387 60.3289 46.714 60.2617 39.0844ZM53.9383 20.3602C55.6653 18.201 56.847 15.2633 56.519 12.2822C54.0193 12.3929 50.8931 14.0108 49.0929 16.1227C47.5002 17.9836 46.0775 21.0339 46.445 23.9024C49.253 24.1118 52.1361 22.4859 53.9383 20.3602Z" fill="white"/>
<path d="M258.006 0H125.205L177.221 79H258.006C260.482 78.9979 262.856 78.0143 264.608 76.2649C266.36 74.5154 267.346 72.1429 267.351 69.6675V9.33642C267.347 6.8605 266.361 4.48728 264.609 2.7371C262.857 0.986917 260.483 0.0026115 258.006 0Z" fill="url(#paint0_linear_37_7365)"/>
<path d="M106.772 62.2373H102.285L99.8265 54.5149H91.282L88.9404 62.2373H84.5713L93.0387 35.9468H98.2674L106.772 62.2373ZM99.0855 51.275L96.8624 44.41C96.6273 43.7087 96.1846 42.0572 95.5365 39.4573H95.4574C95.1966 40.5755 94.7796 42.227 94.2086 44.41L92.023 51.275H99.0855ZM128.505 52.5256C128.505 55.7496 127.63 58.2981 125.877 60.1689C124.308 61.8343 122.358 62.666 120.032 62.666C117.52 62.666 115.714 61.7711 114.617 59.9773V69.9242H110.404V49.5109C110.404 47.4859 110.351 45.4097 110.248 43.28H113.953L114.189 46.2848H114.268C115.673 44.0208 117.805 42.8889 120.666 42.8889C122.903 42.8889 124.77 43.7719 126.264 45.54C127.756 47.3121 128.505 49.6393 128.505 52.5256ZM124.213 52.6797C124.213 50.8345 123.798 49.3133 122.964 48.1142C122.053 46.8676 120.83 46.2433 119.297 46.2433C118.257 46.2433 117.313 46.591 116.469 47.2765C115.623 47.968 115.07 48.8708 114.811 49.989C114.695 50.4071 114.63 50.8375 114.615 51.2711V54.4339C114.615 55.8109 115.038 56.9745 115.884 57.9267C116.73 58.875 117.828 59.3511 119.18 59.3511C120.767 59.3511 122.002 58.7367 122.885 57.5178C123.771 56.2949 124.213 54.6829 124.213 52.6797ZM150.315 52.5256C150.315 55.7496 149.44 58.2981 147.687 60.1689C146.116 61.8343 144.167 62.666 141.84 62.666C139.328 62.666 137.522 61.7711 136.425 59.9773V69.9242H132.212V49.5109C132.212 47.4859 132.159 45.4097 132.056 43.28H135.761L135.996 46.2848H136.075C137.479 44.0208 139.611 42.8889 142.474 42.8889C144.709 42.8889 146.576 43.7719 148.074 45.54C149.564 47.3121 150.315 49.6393 150.315 52.5256ZM146.021 52.6797C146.021 50.8345 145.604 49.3133 144.77 48.1142C143.859 46.8676 142.64 46.2433 141.107 46.2433C140.067 46.2433 139.123 46.591 138.275 47.2765C137.429 47.968 136.878 48.8708 136.619 49.989C136.49 50.5105 136.421 50.9352 136.421 51.2711V54.4339C136.421 55.8109 136.846 56.9745 137.688 57.9267C138.534 58.873 139.632 59.3511 140.988 59.3511C142.577 59.3511 143.812 58.7367 144.693 57.5178C145.578 56.2949 146.021 54.6829 146.021 52.6797ZM174.7 54.8626C174.7 57.1009 173.917 58.9204 172.362 60.325C170.651 61.858 168.262 62.6265 165.199 62.6265C162.369 62.6265 160.101 62.0813 158.389 60.9888L159.363 57.4782C161.211 58.5727 163.24 59.1179 165.45 59.1179C167.038 59.1179 168.274 58.7584 169.155 58.0452C170.038 57.3301 170.485 56.3739 170.485 55.1807C170.485 54.1119 170.115 53.217 169.39 52.488C168.661 51.761 167.455 51.0834 165.762 50.4611C161.158 48.7444 158.854 46.2335 158.854 42.9303C158.854 40.7731 159.668 39.0069 161.292 37.626C162.916 36.2471 165.07 35.5576 167.75 35.5576C170.143 35.5576 172.137 35.9745 173.72 36.8062L172.662 40.2397C171.172 39.4336 169.491 39.0306 167.61 39.0306C166.124 39.0306 164.958 39.3961 164.124 40.1231C163.422 40.773 163.067 41.5652 163.067 42.5056C163.067 43.5428 163.472 44.4041 164.278 45.0797C164.977 45.702 166.254 46.3796 168.1 47.1066C170.364 48.0193 172.028 49.0822 173.093 50.3031C174.166 51.524 174.7 53.0471 174.7 54.8626ZM188.665 46.4409H184.021V55.6449C184.021 57.986 184.839 59.1535 186.479 59.1535C187.232 59.1535 187.856 59.0903 188.35 58.9579L188.467 62.1563C187.637 62.4665 186.544 62.6226 185.191 62.6226C183.527 62.6226 182.227 62.1148 181.288 61.0994C180.353 60.084 179.883 58.383 179.883 55.9887V46.433H177.116V43.2721H179.883V39.8011L184.021 38.5525V43.2721H188.665V46.4409ZM209.575 52.6026C209.575 55.5165 208.741 57.9089 207.078 59.7798C205.337 61.7059 203.021 62.666 200.134 62.666C197.347 62.666 195.132 61.7434 193.48 59.9003C191.828 58.0531 191.002 55.7259 191.002 52.9187C191.002 49.9811 191.856 47.5748 193.557 45.704C195.263 43.8312 197.559 42.8948 200.446 42.8948C203.228 42.8948 205.463 43.8193 207.155 45.6645C208.771 47.4543 209.575 49.7657 209.575 52.6026ZM205.208 52.6994C205.208 50.9629 204.833 49.4733 204.08 48.2268C203.197 46.7214 201.932 45.9687 200.294 45.9687C198.606 45.9687 197.312 46.7214 196.431 48.2268C195.676 49.4733 195.3 50.9886 195.3 52.7784C195.3 54.5169 195.676 56.0104 196.431 57.253C197.341 58.7584 198.612 59.5111 200.258 59.5111C201.869 59.5111 203.131 58.7426 204.044 57.2155C204.819 55.9393 205.208 54.4399 205.208 52.6994ZM223.275 46.9842C222.837 46.9051 222.393 46.8661 221.947 46.8676C220.465 46.8676 219.319 47.4247 218.513 48.5468C217.814 49.5346 217.462 50.7831 217.462 52.2905V62.2373H213.249V49.2501C213.253 47.2601 213.212 45.2702 213.126 43.282H216.796L216.95 46.9091H217.067C217.513 45.6625 218.213 44.657 219.173 43.9043C220.052 43.2466 221.12 42.8904 222.218 42.8889C222.607 42.8889 222.959 42.9165 223.271 42.9659L223.275 46.9842ZM242.117 51.8618C242.128 52.5021 242.076 53.1418 241.963 53.7721H229.324C229.372 55.6449 229.984 57.0792 231.158 58.067C232.223 58.948 233.6 59.3906 235.292 59.3906C237.163 59.3906 238.87 59.0942 240.406 58.4957L241.066 61.4175C239.272 62.1998 237.153 62.589 234.709 62.589C231.768 62.589 229.46 61.7237 227.781 59.9971C226.105 58.2685 225.265 55.9452 225.265 53.0353C225.265 50.1786 226.046 47.7981 227.609 45.8996C229.245 43.8727 231.456 42.8592 234.239 42.8592C236.971 42.8592 239.04 43.8727 240.445 45.8996C241.558 47.5057 242.117 49.4971 242.117 51.8618ZM238.1 50.7693C238.129 49.5188 237.853 48.4421 237.282 47.5314C236.553 46.3579 235.43 45.7732 233.926 45.7732C232.549 45.7732 231.427 46.3441 230.573 47.4899C229.871 48.4006 229.455 49.4951 229.326 50.7654L238.1 50.7693Z" fill="white"/>
<path d="M90.0664 26.6526C88.8946 26.6526 87.8809 26.5953 87.0371 26.4985V13.7879C88.2172 13.6056 89.4098 13.5158 90.6039 13.5192C95.4354 13.5192 97.6604 15.8958 97.6604 19.7698C97.6604 24.2385 95.0323 26.6526 90.0664 26.6526ZM90.7738 15.149C90.1217 15.149 89.5665 15.1885 89.106 15.2834V24.9457C89.355 24.9853 89.8332 25.003 90.5051 25.003C93.6708 25.003 95.4729 23.2013 95.4729 19.8271C95.4729 16.8184 93.8427 15.149 90.7738 15.149ZM104.594 26.7494C101.871 26.7494 100.107 24.7166 100.107 21.9567C100.107 19.0804 101.909 17.0297 104.749 17.0297C107.432 17.0297 109.236 18.9658 109.236 21.8046C109.236 24.7166 107.377 26.7494 104.594 26.7494ZM104.674 18.543C103.178 18.543 102.219 19.9417 102.219 21.8975C102.219 23.8157 103.197 25.2144 104.654 25.2144C106.11 25.2144 107.088 23.7189 107.088 21.858C107.088 19.9614 106.13 18.543 104.674 18.543ZM124.764 17.2214L121.849 26.538H119.95L118.743 22.4921C118.443 21.5025 118.193 20.4983 117.994 19.4834H117.955C117.802 20.4988 117.514 21.5162 117.208 22.4921L115.923 26.538H114.004L111.262 17.2214H113.39L114.445 21.6505C114.694 22.7055 114.904 23.7011 115.077 24.6415H115.117C115.269 23.8572 115.518 22.8773 115.884 21.6703L117.208 17.2233H118.895L120.162 21.5755C120.468 22.6304 120.717 23.6656 120.911 24.6435H120.966C121.101 23.6853 121.312 22.6679 121.599 21.5755L122.731 17.2233L124.764 17.2214ZM135.494 26.538H133.423V21.1883C133.423 19.5407 132.791 18.7149 131.544 18.7149C130.317 18.7149 129.473 19.7698 129.473 20.9966V26.538H127.402V19.8844C127.402 19.0606 127.382 18.1775 127.325 17.2194H129.147L129.244 18.6576H129.301C129.858 17.6619 130.989 17.0297 132.255 17.0297C134.212 17.0297 135.496 18.5252 135.496 20.9591L135.494 26.538ZM141.205 26.538H139.132V12.9463H141.205V26.538ZM148.756 26.7494C146.035 26.7494 144.268 24.7166 144.268 21.9567C144.268 19.0804 146.07 17.0297 148.908 17.0297C151.593 17.0297 153.395 18.9658 153.395 21.8046C153.397 24.7166 151.536 26.7494 148.756 26.7494ZM148.833 18.543C147.337 18.543 146.378 19.9417 146.378 21.8975C146.378 23.8157 147.359 25.2144 148.811 25.2144C150.269 25.2144 151.245 23.7189 151.245 21.858C151.247 19.9614 150.291 18.543 148.833 18.543ZM161.561 26.538L161.41 25.4653H161.355C160.723 26.3286 159.8 26.7494 158.63 26.7494C156.96 26.7494 155.775 25.5799 155.775 24.0074C155.775 21.7078 157.768 20.5185 161.221 20.5185V20.3467C161.221 19.1199 160.57 18.5055 159.286 18.5055C158.367 18.5055 157.561 18.7366 156.852 19.1969L156.431 17.8358C157.292 17.2984 158.367 17.0297 159.63 17.0297C162.064 17.0297 163.294 18.3138 163.294 20.884V24.3155C163.294 25.2559 163.335 25.9849 163.428 26.54L161.561 26.538ZM161.276 21.8975C158.976 21.8975 157.822 22.4546 157.822 23.7762C157.822 24.7541 158.417 25.2322 159.243 25.2322C160.296 25.2322 161.276 24.4281 161.276 23.3357V21.8975ZM173.35 26.538L173.253 25.0425H173.196C172.601 26.1726 171.601 26.7494 170.204 26.7494C167.957 26.7494 166.293 24.7739 166.293 21.9943C166.293 19.0804 168.018 17.0278 170.374 17.0278C171.621 17.0278 172.504 17.4486 173.002 18.2941H173.043V12.9463H175.116V24.0271C175.116 24.928 175.138 25.7715 175.193 26.538H173.35ZM173.043 21.0559C173.043 19.752 172.18 18.6398 170.862 18.6398C169.326 18.6398 168.388 20.001 168.388 21.9172C168.388 23.796 169.362 25.0821 170.82 25.0821C172.123 25.0821 173.043 23.9501 173.043 22.6087V21.0559ZM188.259 26.7494C185.538 26.7494 183.773 24.7166 183.773 21.9567C183.773 19.0804 185.576 17.0297 188.413 17.0297C191.099 17.0297 192.901 18.9658 192.901 21.8046C192.903 24.7166 191.043 26.7494 188.259 26.7494ZM188.336 18.543C186.842 18.543 185.884 19.9417 185.884 21.8975C185.884 23.8157 186.862 25.2144 188.316 25.2144C189.775 25.2144 190.751 23.7189 190.751 21.858C190.755 19.9614 189.797 18.543 188.336 18.543ZM204.038 26.538H201.965V21.1883C201.965 19.5407 201.333 18.7149 200.086 18.7149C198.859 18.7149 198.017 19.7698 198.017 20.9966V26.538H195.944V19.8844C195.944 19.0606 195.924 18.1775 195.867 17.2194H197.689L197.786 18.6576H197.843C198.398 17.6619 199.531 17.0278 200.795 17.0278C202.752 17.0278 204.038 18.5232 204.038 20.9571V26.538ZM217.971 18.7741H215.693V23.2981C215.693 24.4499 216.092 25.0248 216.898 25.0248C217.264 25.0248 217.57 24.9853 217.817 24.928L217.874 26.5005C217.473 26.6546 216.936 26.7316 216.268 26.7316C214.636 26.7316 213.66 25.8308 213.66 23.472V18.7741H212.3V17.2214H213.66V15.5145L215.693 14.9001V17.2194H217.971V18.7741ZM228.935 26.538H226.866V21.2278C226.866 19.5604 226.235 18.7169 224.986 18.7169C223.913 18.7169 222.913 19.4458 222.913 20.9216V26.538H220.844V12.9463H222.913V18.543H222.955C223.607 17.5276 224.552 17.0278 225.757 17.0278C227.729 17.0278 228.935 18.5608 228.935 20.9966V26.538ZM240.166 22.3775H233.952C233.991 24.1417 235.159 25.1374 236.888 25.1374C237.807 25.1374 238.653 24.9833 239.4 24.6968L239.722 26.135C238.841 26.5183 237.803 26.7099 236.596 26.7099C233.681 26.7099 231.956 24.8687 231.956 22.014C231.956 19.1574 233.723 17.01 236.363 17.01C238.744 17.01 240.238 18.7741 240.238 21.4392C240.251 21.7537 240.227 22.0686 240.166 22.3775ZM238.267 20.9018C238.267 19.4636 237.542 18.4482 236.218 18.4482C235.029 18.4482 234.088 19.4834 233.954 20.9018H238.267Z" fill="white"/>
<defs>
<linearGradient id="paint0_linear_37_7365" x1="196.276" y1="79.2097" x2="196.276" y2="-205.702" gradientUnits="userSpaceOnUse">
<stop stop-color="#1A1A1A" stop-opacity="0.1"/>
<stop offset="0.123" stop-color="#212121" stop-opacity="0.151"/>
<stop offset="0.308" stop-color="#353535" stop-opacity="0.227"/>
<stop offset="0.532" stop-color="#575757" stop-opacity="0.318"/>
<stop offset="0.783" stop-color="#858585" stop-opacity="0.421"/>
<stop offset="1" stop-color="#B3B3B3" stop-opacity="0.51"/>
</linearGradient>
</defs>
</svg>
