<svg width="671" height="741" viewBox="0 0 671 741" fill="none" xmlns="http://www.w3.org/2000/svg">
<path fill-rule="evenodd" clip-rule="evenodd" d="M334.626 740.642C268.647 742.554 202.775 736.896 145.637 721.694C83.8809 705.263 15.794 684.232 2.10718 652.173C-11.3734 620.597 42.8558 592.464 78.6378 564.761C106.768 542.982 145.146 526.371 186.379 509.507C233.11 490.394 272.012 461.608 334.626 460.061C397.621 458.504 440.608 487.267 494.992 501.883C557.485 518.678 641.202 523.075 676.652 551.982C714.09 582.511 715.529 622.915 682.003 654.38C649.877 684.53 571.44 695.214 506.974 711.223C451.736 724.94 397.363 738.824 334.626 740.642Z" fill="#212121" fill-opacity="0.5"/>
<rect x="234.357" y="677.053" width="154.586" height="14.3246" rx="7.1623" fill="#474747" stroke="#333333" stroke-width="1.19372"/>
<rect x="266.289" y="677.883" width="90.1256" height="12.534" fill="#1F1F1F"/>
<path d="M150.797 619.159V619.288L150.851 619.406C158.151 635.467 173.765 638.467 180.684 637.958L181.255 637.916L181.237 637.344L178.252 546.323L178.233 545.745H177.656H151.394H150.797V546.342V619.159Z" fill="#2C2C2C" stroke="#333333" stroke-width="1.19372"/>
<path d="M162.734 550.222L159.24 552.894C158.396 553.539 158.296 554.773 159.026 555.546L161.659 558.334C162.275 558.986 162.313 559.993 161.749 560.69L158.707 564.448C158.117 565.177 158.189 566.237 158.871 566.879L161.524 569.376C162.207 570.018 162.278 571.078 161.689 571.806L158.707 575.49C158.117 576.219 158.189 577.278 158.871 577.921L161.552 580.443C162.223 581.075 162.305 582.113 161.741 582.842L158.723 586.749C158.131 587.514 158.254 588.611 159.001 589.226L161.423 591.22C162.158 591.825 162.291 592.901 161.725 593.666L158.671 597.798C158.105 598.564 158.237 599.639 158.973 600.244L161.703 602.493C162.315 602.996 162.523 603.843 162.214 604.572L159.9 610.042C159.627 610.687 159.756 611.433 160.229 611.949L161.932 613.806C162.418 614.337 162.539 615.108 162.239 615.762L159.947 620.764C159.647 621.419 159.768 622.19 160.255 622.72L161.824 624.432C162.363 625.021 162.448 625.895 162.032 626.576L159.452 630.797" stroke="#333333" stroke-width="1.19372"/>
<path d="M471.908 619.159V619.288L471.855 619.406C464.555 635.467 448.94 638.467 442.022 637.958L441.45 637.916L441.469 637.344L444.453 546.323L444.472 545.745H445.05H471.312H471.908V546.342V619.159Z" fill="#2C2C2C" stroke="#333333" stroke-width="1.19372"/>
<path d="M459.972 550.222L463.466 552.894C464.31 553.539 464.41 554.773 463.68 555.546L461.047 558.334C460.431 558.986 460.393 559.993 460.957 560.69L463.999 564.448C464.589 565.177 464.517 566.237 463.835 566.879L461.182 569.376C460.499 570.018 460.428 571.078 461.017 571.806L463.999 575.49C464.589 576.219 464.517 577.278 463.835 577.921L461.155 580.443C460.483 581.075 460.401 582.113 460.965 582.842L463.984 586.749C464.575 587.514 464.452 588.611 463.705 589.226L461.283 591.22C460.548 591.825 460.415 592.901 460.982 593.666L464.035 597.798C464.601 598.564 464.469 599.639 463.733 600.244L461.003 602.493C460.391 602.996 460.183 603.843 460.492 604.572L462.806 610.042C463.079 610.687 462.951 611.433 462.477 611.949L460.775 613.806C460.288 614.337 460.167 615.108 460.467 615.762L462.759 620.764C463.059 621.419 462.938 622.19 462.451 622.72L460.882 624.432C460.343 625.021 460.258 625.895 460.674 626.576L463.254 630.797" stroke="#333333" stroke-width="1.19372"/>
<path d="M453.107 449.353V448.765L453.695 448.756C465.567 448.574 472.081 452.069 475.083 455.254C476.697 456.967 476.982 459.36 476.982 461.491V534.677C476.982 539.938 474.843 545.521 469.605 547.302C463.672 549.32 457.065 549.216 453.62 548.724L453.107 548.651V548.133V449.353Z" fill="#C2C4C7" stroke="#333333" stroke-width="1.19372"/>
<path d="M468.626 536.534L468.611 536.758L468.452 536.916C466.525 538.842 463.659 539.739 460.948 540.107C458.222 540.476 455.552 540.324 453.911 540.068L453.407 539.989V539.478V449.352V448.755L454.004 448.755L454.039 448.755C457.291 448.755 459.704 448.755 461.562 448.945C463.439 449.137 464.825 449.527 465.99 450.359L466.177 450.493L466.226 450.718C468.747 462.361 469.667 479.1 469.799 495.261C469.931 511.433 469.273 527.071 468.626 536.534Z" fill="#1AA160" stroke="#333333" stroke-width="1.19372"/>
<path d="M454.599 502.408H468.924L468.029 535.832C464.447 538.22 462.955 540.01 454.599 538.816V502.408Z" fill="#0D703F"/>
<path d="M172.267 435.923L171.775 435.94L171.698 436.426C157.953 523.059 168.113 608.878 171.697 634.163C172.611 640.613 177.492 646.219 185.136 651.005C192.794 655.799 203.327 659.837 215.765 663.119C240.647 669.684 273.286 673.255 306.138 673.72C338.991 674.184 372.099 671.542 397.92 665.66C410.828 662.719 421.944 658.962 430.302 654.36C438.646 649.766 444.337 644.277 446.221 637.828C455.747 605.207 457.685 563.948 455.905 525.946C454.126 487.94 448.626 453.127 443.239 433.378L443.119 432.938H442.664C381.388 432.938 241.514 433.535 172.267 435.923Z" fill="url(#paint0_linear_10_1292)" stroke="#333333" stroke-width="1.19372"/>
<path d="M253.796 574.707L256.703 663.086C256.735 664.052 257.526 664.818 258.492 664.818H366.562C367.551 664.818 368.353 664.016 368.353 663.027V570.559C368.353 569.544 367.511 568.732 366.496 568.77L255.519 572.858C254.534 572.895 253.763 573.721 253.796 574.707Z" fill="black" stroke="black" stroke-width="1.19372"/>
<path d="M167.579 451.962L167.365 451.405L167.579 451.962L172.927 449.905C173.619 449.639 174.075 448.975 174.075 448.234V295.624C174.075 294.159 172.411 293.314 171.228 294.179L167.89 296.618C167.436 296.95 167.164 297.477 167.156 298.04L165.146 450.267C165.129 451.534 166.397 452.417 167.579 451.962Z" fill="#808080" stroke="#333333" stroke-width="1.19372"/>
<path d="M194.015 388.059C179.129 397.691 150.609 395.197 140.424 378.599L126.702 362.457L130.334 328.556L169.481 326.135C178.667 336.097 207.513 354.148 198.217 382.44C197.467 384.722 196.031 386.754 194.015 388.059Z" fill="#A9623B" stroke="#A55528" stroke-width="0.807146"/>
<path d="M142.447 379.002C122.279 389.472 107.331 359.334 123.017 344.068C124.289 342.831 126.078 342.181 127.801 342.604C132.61 343.785 138.205 348.609 133.164 364.07L142.447 379.002Z" fill="#161416"/>
<path d="M194.099 330.17C190.871 326.403 182.799 318.789 176.342 318.466L168.271 326.942C170.961 330.574 177.956 336.627 186.431 342.681L194.099 330.17Z" fill="#161416"/>
<path d="M179.571 309.989C156.064 292.65 113.794 313.576 122.32 340.444C123.105 342.92 125.394 344.592 127.987 344.766C149.677 346.216 179.571 332.73 179.571 309.989Z" fill="#161416"/>
<path d="M165.446 348.734L172.711 337.837" stroke="black" stroke-width="2.42144"/>
<path d="M167.057 369.425L173.522 363.558" stroke="black" stroke-width="2.42144"/>
<path d="M173.115 382.23C174.406 377.065 181.186 371.468 184.415 369.316" stroke="black" stroke-width="2.42144"/>
<path d="M165.629 385.254L154.565 376.89" stroke="white" stroke-width="0.807147"/>
<path d="M164.607 381.816L155.882 375.165" stroke="white" stroke-width="0.807147"/>
<path d="M164.072 377.858L157.274 372.675" stroke="white" stroke-width="0.807147"/>
<path d="M189.52 362.749L183.245 350.38" stroke="white" stroke-width="0.807146"/>
<path d="M186.317 361.133L181.315 351.371" stroke="white" stroke-width="0.807146"/>
<path d="M182.515 359.907L178.617 352.3" stroke="white" stroke-width="0.807146"/>
<path d="M140.884 365.251L152.076 358.451" stroke="black" stroke-width="2.42144"/>
<ellipse cx="171.904" cy="349.541" rx="3.22859" ry="2.82501" transform="rotate(-21.681 171.904 349.541)" fill="black"/>
<ellipse cx="151.734" cy="366.677" rx="3.22859" ry="2.82501" transform="rotate(-21.681 151.734 366.677)" fill="black"/>
<path d="M453.336 451.962L453.55 451.405L453.336 451.962L447.987 449.905C447.296 449.639 446.839 448.975 446.839 448.234V295.624C446.839 294.159 448.503 293.314 449.686 294.179L453.024 296.618C453.479 296.95 453.751 297.477 453.758 298.04L455.769 450.267C455.786 451.534 454.518 452.417 453.336 451.962Z" fill="#808080" stroke="#333333" stroke-width="1.19372"/>
<path d="M452.21 500.02C455.792 516.135 422.069 537.025 404.461 494.648L452.21 500.02Z" fill="#0D703F"/>
<path d="M448.339 437.427L448.818 437.156L449.127 437.612C465.587 461.89 460.677 484.998 454.246 497.382C452.281 501.167 449.295 504.356 445.627 506.54C433.959 513.485 422.156 511.867 414.105 505.419C406.065 498.98 401.816 487.763 405.139 475.625C407.38 467.441 414.481 461.964 421.324 457.394C428.149 452.836 433.486 448.649 437.82 445.202C438.165 444.928 438.503 444.659 438.835 444.394C442.67 441.339 445.731 438.901 448.339 437.427Z" fill="#3C3C3E" stroke="#333333" stroke-width="1.19372"/>
<path d="M431.916 466.895C436.193 462.02 446.482 450.123 448.631 440.334C465.642 459.135 463.851 513.45 426.248 509.57L431.916 466.895Z" fill="#1D1D1D"/>
<circle cx="21.4869" cy="21.4869" r="22.0838" transform="matrix(-1 0 0 1 451.318 462.716)" fill="#ECECEC" stroke="#333333" stroke-width="1.19372"/>
<path fill-rule="evenodd" clip-rule="evenodd" d="M430.094 504.198C441.033 504.077 449.864 495.171 449.864 484.203C449.864 473.235 441.033 464.33 430.094 464.208V504.198Z" fill="#DBDBDB"/>
<path d="M239.43 665.349C233.064 637.496 227.495 578.208 239.43 565.077L245.997 570.449L250.772 665.349H239.43Z" fill="#1D4D70"/>
<path d="M239.43 665.349C233.064 637.496 227.495 578.208 239.43 565.077L245.997 570.449L250.772 665.349H239.43Z" fill="#0D703F"/>
<path d="M386.855 665.946C393.221 638.093 398.79 578.805 386.855 565.674L380.288 571.046L375.514 665.946H386.855Z" fill="#0D703F"/>
<path d="M245.697 673.473V693.169C245.697 694.158 246.499 694.96 247.488 694.96H257.634C258.623 694.96 259.425 694.158 259.425 693.169V673.473C259.425 672.484 258.623 671.682 257.634 671.682H247.488C246.499 671.682 245.697 672.484 245.697 673.473Z" fill="#D9D9D9" stroke="#333333" stroke-width="1.19372"/>
<path d="M253.755 673.706V692.806C253.755 693.465 254.289 694 254.949 694H257.336C257.995 694 258.53 693.465 258.53 692.806V673.706C258.53 673.047 257.995 672.513 257.336 672.513H254.949C254.289 672.513 253.755 673.047 253.755 673.706Z" fill="#9B9B9B"/>
<path d="M243.31 631.294V671.086C243.31 672.074 244.112 672.876 245.1 672.876H259.723C260.712 672.876 261.514 672.074 261.514 671.086V630.012C261.514 628.961 260.614 628.136 259.567 628.228L244.944 629.511C244.019 629.592 243.31 630.366 243.31 631.294Z" fill="#D9D9D9" stroke="#333333" stroke-width="1.19372"/>
<path d="M253.158 630.733V670.722C253.158 671.382 253.693 671.916 254.352 671.916H259.127C259.786 671.916 260.321 671.382 260.321 670.722V630.733C260.321 630.074 259.786 629.539 259.127 629.539H254.352C253.693 629.539 253.158 630.074 253.158 630.733Z" fill="#9B9B9B"/>
<path d="M240.028 568.226V630.201C240.028 631.19 240.83 631.992 241.819 631.992H265.096C266.085 631.992 266.887 631.19 266.887 630.201V574.993C266.887 574.196 266.361 573.496 265.596 573.273L242.319 566.507C241.173 566.174 240.028 567.033 240.028 568.226Z" fill="#FBAA03" stroke="#333333" stroke-width="1.19372"/>
<path d="M252.562 629.54V571.482C252.562 570.675 253.345 570.101 254.114 570.343L264.858 573.728C265.355 573.885 265.693 574.346 265.693 574.867V629.54C265.693 630.199 265.158 630.734 264.499 630.734H253.756C253.096 630.734 252.562 630.199 252.562 629.54Z" fill="#CB8806"/>
<path d="M379.992 673.473V693.169C379.992 694.158 379.191 694.96 378.202 694.96H368.055C367.066 694.96 366.265 694.158 366.265 693.169V673.473C366.265 672.484 367.066 671.682 368.055 671.682H378.202C379.191 671.682 379.992 672.484 379.992 673.473Z" fill="#D9D9D9" stroke="#333333" stroke-width="1.19372"/>
<path d="M371.935 673.706V692.806C371.935 693.465 371.4 694 370.741 694H368.353C367.694 694 367.16 693.465 367.16 692.806V673.706C367.16 673.047 367.694 672.513 368.353 672.513H370.741C371.4 672.513 371.935 673.047 371.935 673.706Z" fill="#9B9B9B"/>
<path d="M382.379 631.294V671.086C382.379 672.074 381.577 672.876 380.589 672.876H365.965C364.977 672.876 364.175 672.074 364.175 671.086V630.012C364.175 628.961 365.075 628.136 366.122 628.228L380.745 629.511C381.67 629.592 382.379 630.366 382.379 631.294Z" fill="#D9D9D9" stroke="#333333" stroke-width="1.19372"/>
<path d="M372.53 630.733V670.722C372.53 671.382 371.996 671.916 371.337 671.916H366.562C365.902 671.916 365.368 671.382 365.368 670.722V630.733C365.368 630.074 365.902 629.539 366.562 629.539H371.337C371.996 629.539 372.53 630.074 372.53 630.733Z" fill="#9B9B9B"/>
<path d="M385.661 568.226V630.201C385.661 631.19 384.86 631.992 383.871 631.992H360.593C359.604 631.992 358.803 631.19 358.803 630.201V574.993C358.803 574.196 359.329 573.496 360.093 573.273L383.371 566.507C384.517 566.174 385.661 567.033 385.661 568.226Z" fill="#FBAA03" stroke="#333333" stroke-width="1.19372"/>
<path d="M373.127 629.54V571.482C373.127 570.675 372.344 570.101 371.574 570.343L360.831 573.728C360.334 573.885 359.996 574.346 359.996 574.867V629.54C359.996 630.199 360.531 630.734 361.19 630.734H371.933C372.593 630.734 373.127 630.199 373.127 629.54Z" fill="#CB8806"/>
<path d="M277.882 603.574L275.185 701.743C275.026 707.536 275.6 713.67 278.988 718.577C286.659 729.688 300.292 734.611 313.475 734.106C326.652 733.601 339.547 727.667 345.723 716.851C347.978 712.903 348.359 708.272 348.359 703.873V603.639C348.359 602.321 347.29 601.252 345.972 601.252H280.269C278.976 601.252 277.918 602.281 277.882 603.574Z" fill="#383838" stroke="#333333" stroke-width="1.19372"/>
<path d="M288.674 607.22L286.932 612.197C286.734 612.764 286.988 613.39 287.525 613.659L289.769 614.781C290.528 615.161 290.66 616.189 290.022 616.747L287.612 618.856C287.068 619.332 287.068 620.177 287.612 620.653L290.478 623.161C290.968 623.59 291.024 624.331 290.605 624.828L287.399 628.637C286.957 629.161 287.047 629.949 287.595 630.36L290.259 632.358C290.84 632.794 290.9 633.643 290.387 634.157L287.487 637.056C286.999 637.545 287.026 638.344 287.545 638.799L290.428 641.322C290.937 641.767 290.975 642.546 290.511 643.038L287.405 646.339C286.952 646.82 286.976 647.576 287.458 648.028L290.534 650.912C290.997 651.346 291.04 652.067 290.631 652.552L287.201 656.625C286.841 657.053 286.826 657.673 287.165 658.117L290.809 662.9C291.134 663.327 291.134 663.92 290.809 664.347L287.314 668.934C286.912 669.461 287.017 670.215 287.547 670.612L290.489 672.818C290.982 673.189 291.112 673.874 290.789 674.399L287.096 680.401C286.798 680.884 286.882 681.51 287.296 681.897L290.695 685.084C291.087 685.452 291.185 686.037 290.933 686.513L288.93 690.297C288.767 690.604 288.747 690.967 288.873 691.29L291.172 697.164C291.292 697.471 291.28 697.813 291.139 698.11L288.938 702.757C288.773 703.107 288.787 703.515 288.977 703.853L291.057 707.551C291.247 707.889 291.261 708.298 291.095 708.648L288.91 713.262C288.76 713.578 288.757 713.943 288.9 714.262L291.149 719.261C291.284 719.559 291.29 719.9 291.166 720.203L288.674 726.294" stroke="#232323" stroke-width="1.19372"/>
<path d="M300.014 607.22L298.272 612.197C298.074 612.764 298.328 613.39 298.865 613.659L301.11 614.781C301.869 615.161 302.001 616.189 301.362 616.747L298.952 618.856C298.408 619.332 298.408 620.177 298.952 620.653L301.819 623.161C302.308 623.59 302.365 624.331 301.946 624.828L298.739 628.637C298.297 629.161 298.387 629.949 298.936 630.36L301.599 632.358C302.18 632.794 302.241 633.643 301.727 634.157L298.828 637.056C298.339 637.545 298.366 638.344 298.886 638.799L301.769 641.322C302.278 641.767 302.315 642.546 301.852 643.038L298.745 646.339C298.293 646.82 298.316 647.576 298.798 648.028L301.874 650.912C302.337 651.346 302.38 652.067 301.971 652.552L298.541 656.625C298.181 657.053 298.166 657.673 298.505 658.117L302.149 662.9C302.475 663.327 302.475 663.92 302.149 664.347L298.654 668.934C298.253 669.461 298.357 670.215 298.888 670.612L301.829 672.818C302.323 673.189 302.453 673.874 302.13 674.399L298.436 680.401C298.139 680.884 298.222 681.51 298.636 681.897L302.035 685.084C302.428 685.452 302.525 686.037 302.274 686.513L300.27 690.297C300.108 690.604 300.087 690.967 300.214 691.29L302.512 697.164C302.632 697.471 302.62 697.813 302.479 698.11L300.279 702.757C300.113 703.107 300.127 703.515 300.317 703.853L302.397 707.551C302.587 707.889 302.602 708.298 302.436 708.648L300.25 713.262C300.101 713.578 300.097 713.943 300.241 714.262L302.49 719.261C302.624 719.559 302.63 719.9 302.506 720.203L300.014 726.294" stroke="#232323" stroke-width="1.19372"/>
<path d="M311.355 607.22L309.613 612.197C309.414 612.764 309.668 613.39 310.206 613.659L312.45 614.781C313.209 615.161 313.341 616.189 312.702 616.747L310.292 618.856C309.749 619.332 309.749 620.177 310.292 620.653L313.159 623.161C313.649 623.59 313.705 624.331 313.286 624.828L310.079 628.637C309.637 629.161 309.727 629.949 310.276 630.36L312.939 632.358C313.521 632.794 313.581 633.643 313.067 634.157L310.168 637.056C309.68 637.545 309.706 638.344 310.226 638.799L313.109 641.322C313.618 641.767 313.656 642.546 313.192 643.038L310.085 646.339C309.633 646.82 309.657 647.576 310.138 648.028L313.215 650.912C313.678 651.346 313.72 652.067 313.311 652.552L309.882 656.625C309.522 657.053 309.506 657.673 309.845 658.117L313.489 662.9C313.815 663.327 313.815 663.92 313.489 664.347L309.995 668.934C309.593 669.461 309.698 670.215 310.228 670.612L313.169 672.818C313.663 673.189 313.793 673.874 313.47 674.399L309.776 680.401C309.479 680.884 309.563 681.51 309.977 681.897L313.375 685.084C313.768 685.452 313.866 686.037 313.614 686.513L311.611 690.297C311.448 690.604 311.427 690.967 311.554 691.29L313.853 697.164C313.973 697.471 313.961 697.813 313.82 698.11L311.619 702.757C311.453 703.107 311.467 703.515 311.657 703.853L313.738 707.551C313.928 707.889 313.942 708.298 313.776 708.648L311.591 713.262C311.441 713.578 311.437 713.943 311.581 714.262L313.83 719.261C313.964 719.559 313.97 719.9 313.846 720.203L311.355 726.294" stroke="#232323" stroke-width="1.19372"/>
<path d="M322.694 607.22L320.953 612.197C320.754 612.764 321.008 613.39 321.546 613.659L323.79 614.781C324.549 615.161 324.681 616.189 324.042 616.747L321.632 618.856C321.089 619.332 321.089 620.177 321.632 620.653L324.499 623.161C324.988 623.59 325.045 624.331 324.626 624.828L321.419 628.637C320.977 629.161 321.067 629.949 321.616 630.36L324.279 632.358C324.86 632.794 324.921 633.643 324.407 634.157L321.508 637.056C321.019 637.545 321.046 638.344 321.566 638.799L324.449 641.322C324.958 641.767 324.995 642.546 324.532 643.038L321.425 646.339C320.973 646.82 320.996 647.576 321.478 648.028L324.555 650.912C325.018 651.346 325.06 652.067 324.651 652.552L321.222 656.625C320.861 657.053 320.846 657.673 321.185 658.117L324.829 662.9C325.155 663.327 325.155 663.92 324.829 664.347L321.334 668.934C320.933 669.461 321.037 670.215 321.568 670.612L324.509 672.818C325.003 673.189 325.133 673.874 324.81 674.399L321.116 680.401C320.819 680.884 320.903 681.51 321.316 681.897L324.715 685.084C325.108 685.452 325.206 686.037 324.954 686.513L322.951 690.297C322.788 690.604 322.767 690.967 322.894 691.29L325.192 697.164C325.312 697.471 325.3 697.813 325.16 698.11L322.959 702.757C322.793 703.107 322.807 703.515 322.997 703.853L325.078 707.551C325.267 707.889 325.282 708.298 325.116 708.648L322.93 713.262C322.781 713.578 322.777 713.943 322.921 714.262L325.17 719.261C325.304 719.559 325.31 719.9 325.186 720.203L322.694 726.294" stroke="#232323" stroke-width="1.19372"/>
<path d="M334.034 607.22L332.293 612.197C332.094 612.764 332.348 613.39 332.885 613.659L335.13 614.781C335.889 615.161 336.021 616.189 335.382 616.747L332.972 618.856C332.428 619.332 332.428 620.177 332.972 620.653L335.839 623.161C336.328 623.59 336.385 624.331 335.966 624.828L332.759 628.637C332.317 629.161 332.407 629.949 332.956 630.36L335.619 632.358C336.2 632.794 336.261 633.643 335.747 634.157L332.848 637.056C332.359 637.545 332.386 638.344 332.906 638.799L335.789 641.322C336.298 641.767 336.335 642.546 335.872 643.038L332.765 646.339C332.313 646.82 332.336 647.576 332.818 648.028L335.895 650.912C336.357 651.346 336.4 652.067 335.991 652.552L332.561 656.625C332.201 657.053 332.186 657.673 332.525 658.117L336.169 662.9C336.495 663.327 336.495 663.92 336.169 664.347L332.674 668.934C332.273 669.461 332.377 670.215 332.908 670.612L335.849 672.818C336.343 673.189 336.473 673.874 336.15 674.399L332.456 680.401C332.159 680.884 332.242 681.51 332.656 681.897L336.055 685.084C336.448 685.452 336.545 686.037 336.294 686.513L334.29 690.297C334.128 690.604 334.107 690.967 334.234 691.29L336.532 697.164C336.652 697.471 336.64 697.813 336.499 698.11L334.299 702.757C334.133 703.107 334.147 703.515 334.337 703.853L336.417 707.551C336.607 707.889 336.622 708.298 336.456 708.648L334.27 713.262C334.121 713.578 334.117 713.943 334.261 714.262L336.51 719.261C336.644 719.559 336.65 719.9 336.526 720.203L334.034 726.294" stroke="#232323" stroke-width="1.19372"/>
<path d="M268.677 528.137V528.734H269.273H352.834H353.43V528.137V482.477V482.458L353.429 482.439C352.928 474.633 348.724 467.742 342.471 462.418C336.219 457.094 327.89 453.308 319.048 451.696C301.369 448.474 281.465 453.935 271.986 473.445C269.21 479.158 268.677 485.603 268.677 491.836V528.137Z" fill="#27B16E" stroke="#333333" stroke-width="1.19372"/>
<path d="M397.701 571.378L398.703 571.726L398.481 570.689C393.592 547.901 380.493 532.725 363.54 523.745C346.606 514.775 325.853 511.999 305.626 513.928C285.397 515.857 265.642 522.497 250.684 532.42C235.735 542.338 225.498 555.595 224.511 570.775L224.442 571.835L225.383 571.343C228.537 569.694 233.08 568.951 238.162 569.278C243.233 569.604 248.789 570.992 253.938 573.548C264.224 578.655 272.855 588.394 272.855 603.641V603.985L273.153 604.158C282.808 609.739 296.49 613.188 310.443 613.525C324.395 613.863 338.699 611.091 349.574 604.144L349.861 603.961L349.849 603.62C349.779 601.577 350.547 597.769 352.329 593.364C354.104 588.976 356.858 584.059 360.701 579.793C364.542 575.529 369.46 571.927 375.566 570.136C381.667 568.348 389 568.354 397.701 571.378Z" fill="#C9C8CD" stroke="#333333" stroke-width="1.19372"/>
<path d="M393.685 560.367L394.617 560.42L394.274 559.552C379.805 522.929 340.655 511.343 303.982 514.935C285.628 516.733 267.823 522.334 253.918 530.553C240.027 538.764 229.945 549.641 227.209 562.03L226.933 563.282L228.069 562.688C230.809 561.255 235.391 560.948 240.823 561.805C246.227 562.658 252.366 564.645 258.148 567.677C269.739 573.755 279.719 583.923 279.719 597.373V597.718L280.017 597.89C297.124 607.779 323.41 610.206 342.71 597.876L343.219 597.551L342.888 597.046C342.382 596.276 342.154 595.115 342.287 593.597C342.419 592.089 342.903 590.291 343.744 588.312C345.426 584.358 348.505 579.756 352.884 575.436C361.635 566.8 375.525 559.334 393.685 560.367Z" fill="#2CB774" stroke="#333333" stroke-width="1.19372"/>
<path d="M197.86 284.328L197.435 284.392L197.362 284.816L172.647 428.053C171.651 433.821 173.747 439.69 178.17 443.524L184.814 449.282C187.768 451.842 191.387 453.559 195.246 454.199C301.003 471.728 384.111 463.022 422.952 455.099C428.681 453.931 433.883 451.14 438.22 447.252L441.097 444.673C446.196 440.101 448.646 433.265 447.61 426.495L425.943 284.827L425.878 284.398L425.449 284.329C337.508 269.99 237.089 278.354 197.86 284.328Z" fill="#FFC456" stroke="#333333" stroke-width="1.19372"/>
<path d="M445.048 437.116C396.106 448.456 279.957 451.918 175.865 437.116C175.865 452.206 246.415 470.683 417.7 455.774C427.1 454.956 435.686 450.045 441.22 442.403L445.048 437.116Z" fill="#FCA70D"/>
<path d="M426.563 410.809C426.557 410.79 426.551 410.773 426.546 410.757V400.096C426.546 369.557 422.353 339.162 414.085 309.764L412.23 303.169C411.055 298.99 407.596 295.829 403.299 295.134C335.47 284.171 263.205 290.713 221.011 295.042C213.732 295.789 207.805 301.192 206.356 308.361L202.025 329.799C198.52 347.154 196.396 364.758 195.674 382.448L194.721 405.795C194.489 411.474 196.495 417.016 200.308 421.231C203.98 425.289 209.088 427.818 214.543 428.271C274.636 433.269 320.279 434.211 352.949 433.344C385.602 432.478 405.33 429.802 413.573 427.545C422.081 425.216 425.404 421.064 426.521 417.369C427.072 415.544 427.072 413.874 426.934 412.662C426.866 412.055 426.762 411.56 426.675 411.214C426.632 411.04 426.592 410.904 426.563 410.809Z" fill="#69C8FF" stroke="#333333" stroke-width="1.19372"/>
<path d="M265.991 422.791H265.394V423.388V462.184V462.781H265.991H357.311H357.907V462.184V423.388V422.791H357.311H265.991Z" fill="#F7BF5E" stroke="#333333" stroke-width="1.19372"/>
<path d="M241.119 542.738C236.649 544.321 232.843 549.213 228.873 558.326C228.453 559.289 229.448 560.36 230.485 560.201C245.364 557.925 280.757 573.417 280.064 596.966C280.048 597.514 280.383 598.024 280.904 598.193L285.889 599.815C286.801 600.111 287.671 599.28 287.376 598.368C282.1 582.005 266.751 551.139 241.843 542.738C241.608 542.659 241.353 542.655 241.119 542.738Z" fill="#0D703F"/>
<path d="M313.74 605.366L312.546 523.894V511.36C345.672 518.523 377.603 523.894 393.42 559.706C374.918 555.528 339.106 576.716 340.897 597.01C337.614 599.994 329.258 604.47 313.74 605.366Z" fill="#19A05F"/>
<path d="M380.055 541.324C384.525 542.906 388.331 547.798 392.301 556.912C392.721 557.874 391.726 558.946 390.688 558.787C375.81 556.511 340.417 572.002 341.11 595.552C341.126 596.099 340.791 596.609 340.27 596.779L335.285 598.4C334.373 598.697 333.503 597.866 333.798 596.953C339.074 580.591 354.423 549.724 379.331 541.324C379.566 541.244 379.821 541.241 380.055 541.324Z" fill="#0D703F"/>
<path d="M342.4 475.413C329.377 447.783 291.712 450.71 279.801 475.989C274.754 486.7 276.987 499.668 283.738 509.292C292.053 521.145 303.442 525.018 314.247 523.684C325.019 522.354 335.184 515.856 341.151 507.024C347.391 497.787 347.11 485.406 342.4 475.413Z" fill="#999999" stroke="#333333" stroke-width="1.19372"/>
<circle cx="26.2618" cy="26.2618" r="26.8586" transform="matrix(-1 0 0 1 337.615 466.363)" fill="#ECECEC" stroke="#333333" stroke-width="1.19372"/>
<path fill-rule="evenodd" clip-rule="evenodd" d="M312.248 517.607C325.789 517.456 336.719 506.432 336.719 492.856C336.719 479.279 325.789 468.256 312.248 468.105V517.607Z" fill="#DBDBDB"/>
<path d="M394.018 285.215C369.102 285.693 305.822 286.353 245.266 285.351C243.904 285.328 243.661 283.527 244.982 283.192C287.81 272.342 357.398 270.005 394.018 285.215Z" fill="#F5A917"/>
<path d="M183.273 253.399L183.249 253.416L183.227 253.436C181.775 254.735 176.531 260.283 170.555 267.445C164.574 274.614 157.822 283.446 153.369 291.321C151.515 294.602 152.055 297.659 154.099 299.569C156.108 301.444 159.437 302.089 162.946 300.901C254.214 270.001 348.492 267.409 457.903 301.782C461.986 303.065 465.877 301.589 468.193 298.871C470.513 296.148 471.268 292.157 469.067 288.458C461.639 275.977 451.197 260.993 440.012 253.387C424.998 243.177 404.31 235.994 381.049 231.472C357.779 226.949 331.892 225.082 306.448 225.53C281.003 225.979 255.984 228.743 234.449 233.49C212.929 238.234 194.831 244.971 183.273 253.399Z" fill="#323232" stroke="#333333" stroke-width="1.19372"/>
<path d="M161.541 300.436C213.467 255.671 387.75 247.912 461.163 300.436C358.504 263.431 213.467 276.205 161.541 300.436Z" fill="#1D1D1D"/>
<path d="M166.02 450.545V449.958L165.432 449.949C153.56 449.766 147.046 453.262 144.044 456.447C142.43 458.159 142.145 460.553 142.145 462.684V535.87C142.145 541.13 144.284 546.714 149.522 548.495C155.455 550.512 162.062 550.408 165.507 549.916L166.02 549.843V549.325V450.545Z" fill="#C2C4C7" stroke="#333333" stroke-width="1.19372"/>
<path d="M150.501 537.727L150.516 537.95L150.675 538.108C152.602 540.035 155.468 540.932 158.179 541.299C160.905 541.668 163.575 541.516 165.216 541.26L165.72 541.181V540.67V450.545V449.948L165.123 449.948L165.088 449.948C161.836 449.948 159.423 449.948 157.565 450.137C155.688 450.329 154.302 450.719 153.137 451.551L152.949 451.685L152.901 451.911C150.38 463.553 149.46 480.293 149.328 496.453C149.196 512.625 149.854 528.263 150.501 537.727Z" fill="#2AB471" stroke="#333333" stroke-width="1.19372"/>
<path d="M164.527 503.601H150.203L151.098 537.025C154.679 539.412 156.171 541.203 164.527 540.009V503.601Z" fill="#0D703F"/>
<path d="M166.612 500.02C163.031 516.135 196.754 537.025 214.362 494.648L166.612 500.02Z" fill="#0D703F"/>
<path d="M170.485 437.427L170.006 437.156L169.697 437.612C153.238 461.89 158.147 484.998 164.578 497.382C166.543 501.167 169.529 504.356 173.197 506.54C184.865 513.485 196.669 511.867 204.719 505.419C212.759 498.98 217.008 487.763 213.685 475.625C211.444 467.441 204.343 461.964 197.501 457.394C190.676 452.836 185.338 448.649 181.004 445.202C180.66 444.928 180.322 444.659 179.989 444.394C176.154 441.339 173.093 438.901 170.485 437.427Z" fill="#3C3C3E" stroke="#333333" stroke-width="1.19372"/>
<path d="M186.908 466.895C182.631 462.02 172.342 450.123 170.193 440.334C153.182 459.135 154.974 513.45 192.576 509.57L186.908 466.895Z" fill="#1D1D1D"/>
<circle cx="188.993" cy="484.203" r="22.0838" fill="#ECECEC" stroke="#333333" stroke-width="1.19372"/>
<path fill-rule="evenodd" clip-rule="evenodd" d="M188.731 504.198C177.792 504.076 168.961 495.171 168.961 484.203C168.961 473.235 177.792 464.33 188.731 464.208V504.198Z" fill="#DBDBDB"/>
<path d="M292.702 316.784L210.782 334.704L423.263 322.758L292.702 316.784Z" fill="#96D7FD"/>
<path d="M214.363 426.606L359.698 291.716L389.84 294.701L226.897 428.098L214.363 426.606Z" fill="#96D7FD" fill-opacity="0.81"/>
<path d="M397.002 295.298L275.839 422.429H283.002L406.253 296.79L397.002 295.298Z" fill="#96D7FD" fill-opacity="0.81"/>
<path d="M282.388 432.503V430.843H288.982V432.503H286.7V438.43H284.67V432.503H282.388ZM303.612 433.347C303.58 433.216 303.529 433.102 303.46 433.003C303.391 432.902 303.305 432.816 303.201 432.747C303.1 432.676 302.981 432.622 302.845 432.588C302.712 432.551 302.565 432.532 302.404 432.532C302.059 432.532 301.764 432.615 301.519 432.781C301.277 432.946 301.092 433.184 300.963 433.496C300.837 433.807 300.774 434.182 300.774 434.622C300.774 435.066 300.835 435.447 300.956 435.763C301.077 436.079 301.257 436.321 301.497 436.489C301.736 436.657 302.034 436.741 302.39 436.741C302.703 436.741 302.964 436.695 303.171 436.604C303.381 436.512 303.538 436.383 303.642 436.215C303.745 436.047 303.797 435.849 303.797 435.622L304.153 435.659H302.419V434.192H305.783V435.244C305.783 435.936 305.636 436.527 305.342 437.019C305.051 437.508 304.648 437.883 304.134 438.145C303.623 438.404 303.037 438.534 302.375 438.534C301.636 438.534 300.988 438.377 300.43 438.063C299.872 437.75 299.436 437.303 299.122 436.722C298.811 436.142 298.655 435.451 298.655 434.651C298.655 434.024 298.751 433.468 298.941 432.984C299.133 432.5 299.4 432.091 299.741 431.758C300.082 431.422 300.476 431.169 300.923 430.999C301.37 430.826 301.849 430.739 302.36 430.739C302.809 430.739 303.227 430.804 303.612 430.932C304 431.058 304.342 431.238 304.638 431.473C304.937 431.705 305.178 431.98 305.361 432.299C305.543 432.618 305.655 432.967 305.694 433.347H303.612ZM317.764 438.43H315.542L318.046 430.843H320.861L323.366 438.43H321.143L319.483 432.932H319.424L317.764 438.43ZM317.349 435.437H321.528V436.978H317.349V435.437ZM337.951 433.347C337.919 433.216 337.868 433.102 337.799 433.003C337.73 432.902 337.644 432.816 337.54 432.747C337.439 432.676 337.32 432.622 337.184 432.588C337.051 432.551 336.904 432.532 336.743 432.532C336.398 432.532 336.103 432.615 335.858 432.781C335.616 432.946 335.431 433.184 335.302 433.496C335.176 433.807 335.113 434.182 335.113 434.622C335.113 435.066 335.174 435.447 335.295 435.763C335.416 436.079 335.596 436.321 335.836 436.489C336.075 436.657 336.373 436.741 336.729 436.741C337.042 436.741 337.303 436.695 337.51 436.604C337.72 436.512 337.877 436.383 337.981 436.215C338.085 436.047 338.136 435.849 338.136 435.622L338.492 435.659H336.758V434.192H340.122V435.244C340.122 435.936 339.975 436.527 339.681 437.019C339.39 437.508 338.987 437.883 338.473 438.145C337.962 438.404 337.376 438.534 336.714 438.534C335.975 438.534 335.327 438.377 334.769 438.063C334.211 437.75 333.775 437.303 333.461 436.722C333.15 436.142 332.994 435.451 332.994 434.651C332.994 434.024 333.09 433.468 333.28 432.984C333.472 432.5 333.739 432.091 334.08 431.758C334.421 431.422 334.815 431.169 335.262 430.999C335.709 430.826 336.188 430.739 336.699 430.739C337.148 430.739 337.566 430.804 337.951 430.932C338.339 431.058 338.681 431.238 338.977 431.473C339.276 431.705 339.517 431.98 339.7 432.299C339.882 432.618 339.994 432.967 340.033 433.347H337.951Z" fill="#513500"/>
<path d="M287.939 452.896C287.25 452.893 286.654 452.734 286.153 452.418C285.652 452.102 285.265 451.646 284.994 451.051C284.722 450.456 284.587 449.742 284.59 448.91C284.592 448.075 284.728 447.366 284.997 446.783C285.269 446.2 285.654 445.757 286.153 445.453C286.654 445.15 287.25 444.998 287.939 444.998C288.628 444.998 289.223 445.151 289.724 445.457C290.226 445.761 290.612 446.204 290.884 446.787C291.155 447.37 291.29 448.077 291.287 448.91C291.287 449.747 291.152 450.463 290.88 451.058C290.608 451.653 290.222 452.109 289.72 452.425C289.222 452.739 288.628 452.896 287.939 452.896ZM287.939 451.221C288.294 451.221 288.586 451.036 288.813 450.666C289.043 450.293 289.156 449.707 289.154 448.91C289.154 448.389 289.102 447.962 288.998 447.632C288.894 447.301 288.751 447.056 288.568 446.898C288.386 446.738 288.176 446.657 287.939 446.657C287.583 446.657 287.293 446.838 287.068 447.198C286.843 447.559 286.728 448.129 286.724 448.91C286.721 449.441 286.772 449.878 286.875 450.221C286.979 450.562 287.122 450.814 287.305 450.977C287.49 451.14 287.702 451.221 287.939 451.221ZM304.843 452.896C304.154 452.893 303.559 452.734 303.058 452.418C302.556 452.102 302.17 451.646 301.898 451.051C301.626 450.456 301.492 449.742 301.494 448.91C301.497 448.075 301.633 447.366 301.902 446.783C302.174 446.2 302.559 445.757 303.058 445.453C303.559 445.15 304.154 444.998 304.843 444.998C305.532 444.998 306.127 445.151 306.629 445.457C307.13 445.761 307.517 446.204 307.788 446.787C308.06 447.37 308.195 448.077 308.192 448.91C308.192 449.747 308.056 450.463 307.785 451.058C307.513 451.653 307.126 452.109 306.625 452.425C306.126 452.739 305.532 452.896 304.843 452.896ZM304.843 451.221C305.199 451.221 305.49 451.036 305.718 450.666C305.947 450.293 306.061 449.707 306.058 448.91C306.058 448.389 306.006 447.962 305.903 447.632C305.799 447.301 305.656 447.056 305.473 446.898C305.29 446.738 305.08 446.657 304.843 446.657C304.488 446.657 304.197 446.838 303.973 447.198C303.748 447.559 303.633 448.129 303.628 448.91C303.626 449.441 303.676 449.878 303.78 450.221C303.884 450.562 304.027 450.814 304.21 450.977C304.395 451.14 304.606 451.221 304.843 451.221ZM318.581 452.688L321.559 446.791V446.746H318.062V445.101H323.693V446.746L320.7 452.688H318.581ZM337.611 445.101V452.688H335.551V446.998H335.506L333.847 447.991V446.242L335.714 445.101H337.611Z" fill="#513500"/>
<path d="M192.245 399.097L178.267 403.894L177.512 402.535C175.762 402.394 174.141 403.499 173.699 405.197C171.62 413.189 169.059 428.454 186.172 423.964C187.515 423.611 188.451 422.409 188.563 421.025L188.691 419.442L179.562 420.003L191.061 417.842C192.771 417.521 193.975 415.975 193.866 414.238L193.679 411.234C195.178 410.843 196.128 409.369 195.865 407.842L195.262 404.346C195.922 404.184 196.354 403.552 196.265 402.878L196.081 401.475C195.841 399.648 193.988 398.5 192.245 399.097Z" fill="#A9623B"/>
<path d="M177.885 408.621L195.262 404.346M195.262 404.346V404.346C195.922 404.184 196.354 403.552 196.265 402.878L196.081 401.475C195.841 399.648 193.988 398.5 192.245 399.097L178.267 403.894L177.512 402.535V402.535C175.762 402.394 174.141 403.499 173.699 405.197C171.62 413.189 169.059 428.454 186.172 423.964C187.515 423.611 188.451 422.409 188.563 421.025L188.691 419.442L179.562 420.003L191.061 417.842C192.771 417.521 193.975 415.975 193.866 414.238L193.679 411.234M195.262 404.346L195.865 407.842C196.128 409.369 195.178 410.843 193.679 411.234V411.234M177.33 415.497L193.679 411.234" stroke="#A55428" stroke-width="0.862303"/>
<path d="M189.579 403.077L189.358 400.464L193.33 399.487L193.912 402.994L189.579 403.077Z" fill="white"/>
<path d="M190.279 410.487L190.057 407.873L194.029 406.896L194.611 410.404L190.279 410.487Z" fill="white"/>
<path d="M188.934 416.434L188.712 413.82L192.684 412.843L192.871 415.886L188.934 416.434Z" fill="white"/>
<path d="M184.839 422.827L184.678 420.927L187.567 420.216L187.99 422.767L184.839 422.827Z" fill="white"/>
<rect x="463.252" y="379.366" width="3.99021" height="28.929" rx="1.9951" transform="rotate(46.2286 463.252 379.366)" fill="#323232"/>
<ellipse cx="481.567" cy="381.558" rx="27.4327" ry="16.9584" fill="#323232"/>
<path d="M483.066 379.564L459.624 371.583C467.438 366.263 487.057 358.815 503.018 371.583L483.066 379.564Z" fill="#1D1D1D"/>
<path d="M483.066 383.554L459.624 391.534C467.438 396.854 487.057 404.303 503.018 391.534L483.066 383.554Z" fill="#1D1D1D"/>
<rect width="3.99021" height="28.929" rx="1.9951" transform="matrix(-0.691783 0.722106 0.722106 0.691783 157.453 379.367)" fill="#323232"/>
<ellipse cx="27.4327" cy="16.9584" rx="27.4327" ry="16.9584" transform="matrix(-1 0 0 1 166.57 364.6)" fill="#323232"/>
<path d="M137.641 379.564L161.083 371.583C153.269 366.263 133.65 358.815 117.689 371.583L137.641 379.564Z" fill="#1D1D1D"/>
<path d="M137.641 383.554L161.083 391.535C153.269 396.855 133.65 404.303 117.689 391.535L137.641 383.554Z" fill="#1D1D1D"/>
<path d="M100.143 302.393C89.6963 274.545 66.3517 199.102 106.634 182.09L82.052 159.95C70.4457 177.829 57.8149 231.349 100.143 302.393Z" fill="white"/>
<ellipse cx="132.915" cy="97.1163" rx="132.915" ry="97.1163" transform="matrix(-0.998638 0.0521821 0.0521821 0.998638 317.467 0)" fill="white"/>
<path d="M158.556 41.1556H161.72C165.882 41.1556 168.881 44.3932 170.719 50.8685L171.2 55.0104C171.2 59.0744 169.173 62.7204 165.118 65.9483C163.796 66.9206 162.26 67.4067 160.51 67.4067C155.756 67.4067 151.784 64.8157 148.595 59.6335C147.943 58.5154 147.618 57.5431 147.618 56.7167V53.0561C147.618 48.6323 149.966 45.069 154.662 42.3661L158.556 41.1556ZM154.268 52.954C155.299 56.6195 156.908 58.4522 159.095 58.4522H160.233C162.012 58.4522 163.159 57.3827 163.675 55.2437V54.5583C162.858 50.4261 161.56 48.3601 159.781 48.3601H159.314C157.438 48.3601 155.756 49.8136 154.268 52.7207V52.954ZM182.357 41.1556H185.274C186.246 41.1556 186.732 41.8022 186.732 43.0953L186.98 44.5537C186.309 46.3329 185.176 47.2225 183.582 47.2225L183.334 46.9892H183.086C180.004 49.0504 178.463 50.7518 178.463 52.0936C179.552 55.9826 181.258 57.9272 183.582 57.9272H184.792C187.223 57.9272 188.438 56.4688 188.438 53.552H188.19L184.544 55.4916H183.815C182.23 55.4916 181.341 54.359 181.146 52.0936C181.146 50.1879 183.417 48.6469 187.957 47.4705H188.686C190.514 47.4705 192.459 48.9289 194.52 51.8456L195.001 53.7853V54.7624C195.001 59.089 192.974 62.8177 188.92 65.9483C187.597 66.9206 186.061 67.4067 184.311 67.4067C179.557 67.4067 175.585 64.8157 172.396 59.6335C171.744 58.5154 171.419 57.5431 171.419 56.7167V53.0561C171.419 48.6323 173.767 45.069 178.463 42.3661L182.357 41.1556ZM206.552 41.1702H211.7C213.557 41.1702 215.03 42.9689 216.119 46.5663C220.202 55.1222 222.244 61.3349 222.244 65.2046C222.574 65.2046 222.74 65.6129 222.74 66.4296L222.011 67.4067L219.065 67.1588H214.894C214.485 67.1588 213.912 65.2775 213.173 61.5148L212.939 61.2815C212.939 60.4648 212.2 60.0564 210.723 60.0564C209.147 59.5606 207.679 59.3126 206.318 59.3126C205.336 59.5946 204.845 60.5766 204.845 62.2586C204.476 62.2586 204.067 63.0753 203.62 64.7087C202.638 66.3227 201.982 67.1394 201.651 67.1588H200.178L199.201 66.9109L198.472 67.1588C197.014 67.1588 195.949 66.7505 195.278 65.9338V65.6858C195.278 63.4788 198.385 56.2063 204.597 43.8682C205.404 42.2056 206.056 41.3063 206.552 41.1702ZM209.745 48.7684L207.543 54.1645V54.4124C207.543 55.0152 208.929 55.4236 211.7 55.6375L211.948 55.3896V55.1416L210.241 48.7684H209.745ZM228.209 41.2285H229.361C230.129 41.3063 230.513 41.5008 230.513 41.8119V42.0015L228.398 61.0481C227.864 61.5634 227.222 61.8211 226.473 61.8211H223.775L223.206 61.2523V43.3432C224.568 41.9334 226.235 41.2285 228.209 41.2285ZM224.913 62.7107L226.021 62.8274C227.091 63.4399 227.825 64.3733 228.223 65.6275L227.757 66.4734C227.416 67.0956 226.886 67.538 226.167 67.8005L225.511 67.4067C223.926 67.329 223.284 66.6873 223.586 65.4817L223.061 65.3504C223.663 64.0281 224.281 63.1482 224.913 62.7107Z" fill="#DC102E"/>
<path d="M70.9466 87.4471H71.4204C75.091 88.0789 76.9263 89.1276 76.9263 90.5934L78.0351 91.7021L79.921 89.0202C81.2035 88.18 82.726 87.6556 84.4887 87.4471H84.9625C85.6322 87.7883 86.2103 90.3091 86.6967 95.0095V103.358C86.6967 104.091 86.2229 104.458 85.2753 104.458H83.8632C82.6376 104.458 81.7973 104.249 81.3425 103.832L81.6552 95.0095C79.9999 96.134 79.0017 97.3944 78.6606 98.7906L78.0351 99.255H77.5613L76.1398 96.5826C75.8239 96.4499 75.5112 95.9761 75.2016 95.1611C74.9489 95.1611 74.633 94.8989 74.2539 94.3745V94.5356L74.5667 103.832C74.1118 104.249 73.2715 104.458 72.0459 104.458H70.6339C69.6862 104.458 69.2124 104.091 69.2124 103.358V95.0095C69.6988 90.3091 70.2769 87.7883 70.9466 87.4471ZM87.3696 87.4092L88.9617 87.5703H90.7148C90.9233 87.5703 91.2929 88.9507 91.8236 91.7116C92.2785 94.1566 92.6512 95.3791 92.9418 95.3791H93.1029L95.9744 88.2052C96.265 87.782 96.6346 87.5703 97.0831 87.5703H97.7181C98.9942 87.5703 99.6323 87.782 99.6323 88.2052C99.6323 89.1719 98.0403 92.5708 94.8561 98.4021H94.695L94.8561 101.112V102.07C94.8561 103.371 93.7947 104.167 91.672 104.458H91.3498L91.0276 104.135V99.6814C91.0276 98.3168 90.2852 96.4025 88.8006 93.9386C87.8466 91.1777 87.2622 89.1087 87.0474 87.7314L87.3696 87.4092ZM112.293 87.3997H114.188C114.82 87.3997 115.136 87.8199 115.136 88.6601L115.297 89.6078C114.861 90.7639 114.125 91.342 113.089 91.342L112.928 91.1904H112.767C110.764 92.5297 109.763 93.6354 109.763 94.5072C110.47 97.0343 111.579 98.2979 113.089 98.2979H113.876C115.455 98.2979 116.245 97.3502 116.245 95.4549H116.084L113.715 96.7153H113.241C112.211 96.7153 111.633 95.9792 111.507 94.5072C111.507 93.2689 112.982 92.2676 115.932 91.5031H116.406C117.594 91.5031 118.857 92.4508 120.197 94.3461L120.509 95.6065V96.2414C120.509 99.0528 119.192 101.476 116.558 103.51C115.698 104.142 114.7 104.458 113.563 104.458C110.474 104.458 107.893 102.774 105.821 99.4066C105.397 98.6801 105.186 98.0483 105.186 97.5113V95.1327C105.186 92.2581 106.711 89.9426 109.763 88.1863L112.293 87.3997ZM121.476 87.4471H126.518C129.771 88.3379 131.398 89.9647 131.398 92.3276C131.398 93.9197 130.507 95.338 128.726 96.5826V96.8953C130.337 98.1904 131.91 100.029 133.445 102.411V102.572C131.872 103.614 130.611 104.189 129.664 104.297L125.418 98.1557L124.944 98.0041L125.096 98.1557L124.944 98.9423V99.1034L125.418 103.51C125.418 104.034 125.102 104.297 124.471 104.297V104.458C121.95 104.357 120.689 103.936 120.689 103.197L120.85 102.098V92.9625L121.002 92.3276L120.85 91.7021C120.85 88.8655 121.059 87.4471 121.476 87.4471ZM124.471 91.2283L124.632 94.2229L124.783 94.3745H124.944C126.132 93.8502 127.023 93.0636 127.617 92.0148V91.8537C127.029 90.805 126.296 90.2806 125.418 90.2806H124.944C124.736 90.2806 124.578 90.5965 124.471 91.2283ZM140.96 87.4092H144.305C145.512 87.4092 146.469 88.578 147.177 90.9156C149.83 96.4752 151.157 100.512 151.157 103.027C151.372 103.027 151.479 103.292 151.479 103.823L151.005 104.458L149.091 104.297H146.381C146.115 104.297 145.742 103.074 145.262 100.629L145.111 100.477C145.111 99.9468 144.631 99.6814 143.67 99.6814C142.647 99.3592 141.693 99.1981 140.808 99.1981C140.17 99.3813 139.851 100.019 139.851 101.112C139.611 101.112 139.346 101.643 139.055 102.704C138.417 103.753 137.991 104.284 137.776 104.297H136.819L136.184 104.135L135.71 104.297C134.762 104.297 134.07 104.031 133.634 103.501V103.339C133.634 101.905 135.653 97.1796 139.69 89.1624C140.214 88.082 140.638 87.4977 140.96 87.4092ZM143.035 92.3465L141.604 95.8529V96.014C141.604 96.4057 142.505 96.671 144.305 96.81L144.466 96.6489V96.4878L143.357 92.3465H143.035ZM153.403 87.4092H153.848C155.453 87.6493 156.934 88.1737 158.293 88.9823L160.074 91.9864H160.226C160.226 89.5794 160.621 88.1042 161.41 87.5608C163.287 87.5608 164.225 87.9304 164.225 88.6696L165.258 101.141V102.401L165.41 103.036C165.176 103.775 164.582 104.145 163.628 104.145H161.704C160.915 104.145 160.52 103.722 160.52 102.875V100.042C160.52 99.2708 160.125 98.6896 159.335 98.2979C158.615 96.6552 157.677 95.3411 156.521 94.3556V94.5072L156.814 103.823C156.385 104.246 155.595 104.458 154.445 104.458H153.109C152.218 104.458 151.773 104.088 151.773 103.349V94.981C152.234 90.2743 152.777 87.7504 153.403 87.4092ZM166.348 87.3429H168.243L168.404 87.504L168.565 87.3429H171.579C174.839 87.3429 176.845 90.1416 177.597 95.7392V96.213C177.597 99.0939 176.118 101.577 173.161 103.662C172.05 104.192 170.729 104.458 169.2 104.458C166.768 104.325 165.552 103.902 165.552 103.188L165.713 102.079V92.8867L165.864 92.2518L165.713 91.6168C165.713 88.7675 165.924 87.3429 166.348 87.3429ZM169.2 91.3041C169.409 91.7779 169.513 92.4634 169.513 93.3605V97.8051L169.835 98.1178H170.944C172.17 98.1178 172.959 97.3786 173.313 95.9003V95.4264C172.751 92.5708 171.854 91.143 170.622 91.143H170.309L169.2 91.3041ZM179.416 87.4471H179.89C183.56 88.0789 185.396 89.1276 185.396 90.5934L186.505 91.7021L188.39 89.0202C189.673 88.18 191.195 87.6556 192.958 87.4471H193.432C194.102 87.7883 194.68 90.3091 195.166 95.0095V103.358C195.166 104.091 194.692 104.458 193.745 104.458H192.333C191.107 104.458 190.267 104.249 189.812 103.832L190.125 95.0095C188.469 96.134 187.471 97.3944 187.13 98.7906L186.505 99.255H186.031L184.609 96.5826C184.293 96.4499 183.981 95.9761 183.671 95.1611C183.418 95.1611 183.102 94.8989 182.723 94.3745V94.5356L183.036 103.832C182.581 104.249 181.741 104.458 180.515 104.458H179.103C178.156 104.458 177.682 104.091 177.682 103.358V95.0095C178.168 90.3091 178.746 87.7883 179.416 87.4471ZM202.624 87.3997H204.681C207.385 87.3997 209.334 89.5035 210.528 93.7112L210.841 96.4025C210.841 99.0433 209.523 101.413 206.889 103.51C206.03 104.142 205.031 104.458 203.894 104.458C200.805 104.458 198.224 102.774 196.152 99.4066C195.728 98.6801 195.517 98.0483 195.517 97.5113V95.1327C195.517 92.2581 197.043 89.9426 200.094 88.1863L202.624 87.3997ZM199.838 95.0663C200.508 97.4481 201.553 98.639 202.975 98.639H203.714C204.87 98.639 205.616 97.9441 205.951 96.5542V96.1088C205.42 93.4237 204.576 92.0812 203.42 92.0812H203.117C201.898 92.0812 200.805 93.0257 199.838 94.9147V95.0663ZM220.99 87.3618H221.767C222.013 87.3618 222.219 87.7725 222.383 88.5938C222.383 89.8257 221.202 90.4417 218.839 90.4417L218.687 90.5934H218.526C218.836 98.4716 219.095 102.682 219.303 103.226C219.303 103.801 218.378 104.211 216.526 104.458H214.991C213.86 104.3 213.295 104.044 213.295 103.69C213.706 97.7766 214.012 94.3872 214.214 93.5216V91.3704L213.911 91.0577C213.285 91.3673 212.36 91.5221 211.134 91.5221L210.983 91.3704V90.5934C211.197 88.6475 211.968 87.6746 213.295 87.6746C214.874 87.4661 217.439 87.3618 220.99 87.3618ZM224.117 87.3808H224.591C226.278 87.5893 227.121 87.8515 227.121 88.1673V92.2802C227.121 92.912 227.646 93.2279 228.694 93.2279L230.751 93.5501C231.231 93.5501 231.547 92.0749 231.699 89.1245C231.699 88.518 232.018 87.9904 232.656 87.5419C234.658 87.5419 235.66 87.9115 235.66 88.6506L236.759 101.141V102.401L236.92 103.036C236.667 103.775 236.036 104.145 235.025 104.145H232.968C232.122 104.145 231.699 103.722 231.699 102.875V100.819C231.699 98.9233 231.49 97.9756 231.073 97.9756C230.599 97.7672 229.914 97.6629 229.017 97.6629H227.908L227.595 97.9756V100.345L227.747 103.823C227.292 104.246 226.449 104.458 225.217 104.458H223.795C222.847 104.458 222.374 104.088 222.374 103.349V94.9716C222.86 90.2522 223.441 87.7219 224.117 87.3808ZM247.079 87.4471H247.875L248.358 87.7693C248.226 89.6962 247.904 90.6597 247.392 90.6597C244.081 90.9566 242.426 91.3831 242.426 91.939V94.1945L242.9 94.3461C243.386 94.1376 244.081 94.0334 244.985 94.0334H246.274L246.757 94.5072V97.3976L246.274 97.8809H244.985C243.702 97.8809 243.061 97.7735 243.061 97.5587L242.426 97.7198V99.6435C242.426 100.288 242.853 100.61 243.705 100.61L247.875 101.406L248.358 104.135L247.875 104.458H241.298C238.411 103.933 236.968 102.916 236.968 101.406V101.245C236.968 95.0663 237.663 90.7355 239.052 88.2526C241.428 87.7156 244.103 87.4471 247.079 87.4471ZM249.372 87.4471H254.414C257.668 88.3379 259.295 89.9647 259.295 92.3276C259.295 93.9197 258.404 95.338 256.622 96.5826V96.8953C258.233 98.1904 259.806 100.029 261.341 102.411V102.572C259.768 103.614 258.508 104.189 257.56 104.297L253.315 98.1557L252.841 98.0041L252.993 98.1557L252.841 98.9423V99.1034L253.315 103.51C253.315 104.034 252.999 104.297 252.367 104.297V104.458C249.846 104.357 248.586 103.936 248.586 103.197L248.747 102.098V92.9625L248.899 92.3276L248.747 91.7021C248.747 88.8655 248.956 87.4471 249.372 87.4471ZM252.367 91.2283L252.528 94.2229L252.68 94.3745H252.841C254.029 93.8502 254.919 93.0636 255.513 92.0148V91.8537C254.926 90.805 254.193 90.2806 253.315 90.2806H252.841C252.632 90.2806 252.474 90.5965 252.367 91.2283ZM268.563 87.4092H269.008C270.613 87.6493 272.094 88.1737 273.453 88.9823L275.234 91.9864H275.386C275.386 89.5794 275.781 88.1042 276.57 87.5608C278.447 87.5608 279.385 87.9304 279.385 88.6696L280.418 101.141V102.401L280.57 103.036C280.336 103.775 279.742 104.145 278.788 104.145H276.864C276.074 104.145 275.68 103.722 275.68 102.875V100.042C275.68 99.2708 275.285 98.6896 274.495 98.2979C273.775 96.6552 272.837 95.3411 271.68 94.3556V94.5072L271.974 103.823C271.545 104.246 270.755 104.458 269.605 104.458H268.269C267.378 104.458 266.933 104.088 266.933 103.349V94.981C267.394 90.2743 267.937 87.7504 268.563 87.4092ZM287.819 87.3997H289.876C292.58 87.3997 294.529 89.5035 295.723 93.7112L296.035 96.4025C296.035 99.0433 294.718 101.413 292.084 103.51C291.224 104.142 290.226 104.458 289.089 104.458C286 104.458 283.419 102.774 281.347 99.4066C280.923 98.6801 280.712 98.0483 280.712 97.5113V95.1327C280.712 92.2581 282.237 89.9426 285.289 88.1863L287.819 87.3997ZM285.033 95.0663C285.703 97.4481 286.748 98.639 288.17 98.639H288.909C290.065 98.639 290.811 97.9441 291.145 96.5542V96.1088C290.615 93.4237 289.771 92.0812 288.615 92.0812H288.312C287.093 92.0812 286 93.0257 285.033 94.9147V95.0663ZM296.964 87.4471H302.006C305.259 88.3379 306.886 89.9647 306.886 92.3276C306.886 93.9197 305.995 95.338 304.214 96.5826V96.8953C305.825 98.1904 307.398 100.029 308.933 102.411V102.572C307.36 103.614 306.1 104.189 305.152 104.297L300.906 98.1557L300.433 98.0041L300.584 98.1557L300.433 98.9423V99.1034L300.906 103.51C300.906 104.034 300.59 104.297 299.959 104.297V104.458C297.438 104.357 296.178 103.936 296.178 103.197L296.339 102.098V92.9625L296.49 92.3276L296.339 91.7021C296.339 88.8655 296.547 87.4471 296.964 87.4471ZM299.959 91.2283L300.12 94.2229L300.271 94.3745H300.433C301.62 93.8502 302.511 93.0636 303.105 92.0148V91.8537C302.517 90.805 301.785 90.2806 300.906 90.2806H300.433C300.224 90.2806 300.066 90.5965 299.959 91.2283ZM95.5763 109.4H97.4717C98.1034 109.4 98.4193 109.82 98.4193 110.66L98.5804 111.608C98.1445 112.764 97.4085 113.342 96.3724 113.342L96.2113 113.19H96.0502C94.0474 114.53 93.0461 115.635 93.0461 116.507C93.7537 119.034 94.8624 120.298 96.3724 120.298H97.1589C98.7384 120.298 99.5281 119.35 99.5281 117.455H99.367L96.9978 118.715H96.524C95.4942 118.715 94.9161 117.979 94.7898 116.507C94.7898 115.269 96.265 114.268 99.2154 113.503H99.6892C100.877 113.503 102.14 114.451 103.48 116.346L103.793 117.606V118.241C103.793 121.053 102.475 123.476 99.8408 125.51C98.9816 126.142 97.9834 126.458 96.8462 126.458C93.7568 126.458 91.176 124.774 89.1038 121.407C88.6805 120.68 88.4689 120.048 88.4689 119.511V117.133C88.4689 114.258 89.9946 111.943 93.0461 110.186L95.5763 109.4ZM111.08 109.4H113.137C115.841 109.4 117.79 111.504 118.984 115.711L119.296 118.403C119.296 121.043 117.979 123.413 115.345 125.51C114.485 126.142 113.487 126.458 112.35 126.458C109.261 126.458 106.68 124.774 104.608 121.407C104.184 120.68 103.973 120.048 103.973 119.511V117.133C103.973 114.258 105.498 111.943 108.55 110.186L111.08 109.4ZM108.294 117.066C108.964 119.448 110.009 120.639 111.431 120.639H112.17C113.326 120.639 114.072 119.944 114.406 118.554V118.109C113.876 115.424 113.032 114.081 111.876 114.081H111.573C110.354 114.081 109.261 115.026 108.294 116.915V117.066ZM125.636 109.343H127.532L127.693 109.504L127.854 109.343H130.867C134.127 109.343 136.133 112.142 136.885 117.739V118.213C136.885 121.094 135.407 123.577 132.45 125.662C131.338 126.192 130.018 126.458 128.489 126.458C126.056 126.325 124.84 125.902 124.84 125.188L125.001 124.079V114.887L125.153 114.252L125.001 113.617C125.001 110.768 125.213 109.343 125.636 109.343ZM128.489 113.304C128.697 113.778 128.801 114.463 128.801 115.361V119.805L129.124 120.118H130.232C131.458 120.118 132.248 119.379 132.602 117.9V117.426C132.039 114.571 131.142 113.143 129.91 113.143H129.597L128.489 113.304ZM137.757 109.447H142.798C146.052 110.338 147.679 111.965 147.679 114.328C147.679 115.92 146.788 117.338 145.006 118.583V118.895C146.617 120.19 148.191 122.029 149.726 124.411V124.572C148.153 125.614 146.892 126.189 145.945 126.297L141.699 120.156L141.225 120.004L141.377 120.156L141.225 120.942V121.103L141.699 125.51C141.699 126.034 141.383 126.297 140.751 126.297V126.458C138.231 126.357 136.97 125.936 136.97 125.197L137.131 124.098V114.963L137.283 114.328L137.131 113.702C137.131 110.865 137.34 109.447 137.757 109.447ZM140.751 113.228L140.913 116.223L141.064 116.375H141.225C142.413 115.85 143.304 115.064 143.898 114.015V113.854C143.31 112.805 142.577 112.281 141.699 112.281H141.225C141.017 112.281 140.859 112.597 140.751 113.228ZM150.389 109.447H152.616C153.886 109.447 154.521 110.401 154.521 112.309L155.952 125.823V125.984C155.851 126.3 155.535 126.458 155.004 126.458H154.047C152.423 126.458 151.046 125.873 149.915 124.704V109.921L150.389 109.447ZM158.492 109.627L158.643 109.779L159.439 109.627H160.396C161.224 109.924 162.548 112.941 164.367 118.677L165.637 121.53H165.95C166.695 118.838 167.438 115.506 168.177 111.532C168.385 111.532 168.489 111.001 168.489 109.94L168.973 109.627H171.674L173.578 109.466L174.052 110.101C173.206 114.252 172.252 117.588 171.19 120.108C169.346 124.19 168.234 126.252 167.855 126.297L166.907 126.458H163.571C163.129 126.407 161.224 122.806 157.857 115.654L156.265 110.575V110.414C156.265 110.06 157.007 109.798 158.492 109.627ZM184.287 109.447H185.083L185.566 109.769C185.434 111.696 185.111 112.66 184.6 112.66C181.289 112.957 179.634 113.383 179.634 113.939V116.194L180.108 116.346C180.594 116.138 181.289 116.033 182.193 116.033H183.482L183.965 116.507V119.398L183.482 119.881H182.193C180.91 119.881 180.269 119.773 180.269 119.559L179.634 119.72V121.644C179.634 122.288 180.06 122.61 180.913 122.61L185.083 123.406L185.566 126.135L185.083 126.458H178.506C175.619 125.933 174.175 124.916 174.175 123.406V123.245C174.175 117.066 174.87 112.736 176.26 110.253C178.636 109.716 181.311 109.447 184.287 109.447ZM195.526 109.447H196.171L196.654 109.93L196.493 110.414L196.654 112.337V112.66L196.815 117.635L196.654 121.966C196.654 122.566 198.417 122.992 201.942 123.245C202.157 123.46 202.372 124.423 202.586 126.135L202.103 126.458H201.307C195.741 126.325 192.958 125.899 192.958 125.178C191.783 122.43 191.195 118.096 191.195 112.176C191.195 110.963 192.639 110.054 195.526 109.447ZM203.288 109.447H205.515C206.785 109.447 207.419 110.401 207.419 112.309L208.85 125.823V125.984C208.749 126.3 208.433 126.458 207.903 126.458H206.946C205.322 126.458 203.945 125.873 202.814 124.704V109.921L203.288 109.447ZM219.455 109.409C220.529 109.409 221.066 110.426 221.066 112.461V113.105C219.979 114.836 218.905 116.286 217.844 117.455C220.314 119.47 221.549 121.185 221.549 122.601V125.33C221.549 125.905 220.744 126.227 219.133 126.297C216.852 122.62 215.351 120.421 214.631 119.701V125.974L214.148 126.458H213.503C210.61 125.933 209.163 124.916 209.163 123.406V123.245C209.163 117.041 209.861 112.698 211.257 110.215L214.148 109.731C214.401 109.908 214.615 110.925 214.792 112.783L214.631 115.038C216.988 113.383 218.166 111.722 218.166 110.054C218.621 109.624 219.05 109.409 219.455 109.409ZM231.879 109.447H232.675L233.158 109.769C233.025 111.696 232.703 112.66 232.191 112.66C228.881 112.957 227.226 113.383 227.226 113.939V116.194L227.699 116.346C228.186 116.138 228.881 116.033 229.784 116.033H231.073L231.556 116.507V119.398L231.073 119.881H229.784C228.502 119.881 227.861 119.773 227.861 119.559L227.226 119.72V121.644C227.226 122.288 227.652 122.61 228.505 122.61L232.675 123.406L233.158 126.135L232.675 126.458H226.098C223.211 125.933 221.767 124.916 221.767 123.406V123.245C221.767 117.066 222.462 112.736 223.852 110.253C226.227 109.716 228.903 109.447 231.879 109.447ZM248.794 109.362H249.571C249.818 109.362 250.023 109.772 250.187 110.594C250.187 111.826 249.006 112.442 246.643 112.442L246.492 112.593H246.33C246.64 120.472 246.899 124.682 247.108 125.226C247.108 125.801 246.182 126.211 244.331 126.458H242.796C241.665 126.3 241.099 126.044 241.099 125.69C241.51 119.777 241.816 116.387 242.019 115.522V113.37L241.715 113.058C241.09 113.367 240.164 113.522 238.939 113.522L238.787 113.37V112.593C239.002 110.647 239.773 109.675 241.099 109.675C242.679 109.466 245.244 109.362 248.794 109.362ZM251.922 109.381H252.396C254.082 109.589 254.926 109.851 254.926 110.167V114.28C254.926 114.912 255.45 115.228 256.499 115.228L258.555 115.55C259.035 115.55 259.351 114.075 259.503 111.124C259.503 110.518 259.822 109.99 260.46 109.542C262.463 109.542 263.464 109.911 263.464 110.651L264.564 123.141V124.401L264.725 125.036C264.472 125.775 263.84 126.145 262.829 126.145H260.773C259.926 126.145 259.503 125.722 259.503 124.875V122.819C259.503 120.923 259.295 119.976 258.878 119.976C258.404 119.767 257.718 119.663 256.821 119.663H255.712L255.4 119.976V122.345L255.551 125.823C255.096 126.246 254.253 126.458 253.021 126.458H251.599C250.652 126.458 250.178 126.088 250.178 125.349V116.972C250.664 112.252 251.246 109.722 251.922 109.381ZM265.246 109.447H267.473C268.743 109.447 269.378 110.401 269.378 112.309L270.809 125.823V125.984C270.708 126.3 270.392 126.458 269.861 126.458H268.904C267.28 126.458 265.903 125.873 264.772 124.704V109.921L265.246 109.447ZM281.214 109.343H282.124C282.509 109.343 283.071 110.461 283.811 112.698V113.162C283.811 113.314 283.605 113.465 283.195 113.617L281.669 113.314C280.241 113.314 278.864 113.822 277.537 114.839V114.991C280.955 116.949 282.942 118.734 283.498 120.345C283.681 120.345 283.886 120.904 284.114 122.023C284.114 123.217 283.043 124.439 280.901 125.69C279.423 126.202 278.099 126.458 276.931 126.458H276.476C273.721 126.199 272.344 125.842 272.344 125.387C271.529 124.755 271.121 123.125 271.121 120.497L271.273 120.345H271.576C273.895 121.463 275.272 122.023 275.708 122.023H277.85L278.153 121.719V121.264C277.224 120.134 275.44 118.908 272.799 117.588L271.121 116.062V114.839C271.121 113.513 272.751 112.088 276.011 110.565C277.919 109.75 279.653 109.343 281.214 109.343ZM286.369 129.367H283.318L284.881 126.401L286.208 122.477H290.188L287.649 126.325L286.369 129.367ZM120.367 131.324H121.466C122.515 132.189 123.04 133.396 123.04 134.944C122.875 135.152 121.776 135.623 119.742 136.356C118.061 137.304 117.221 138.611 117.221 140.279C117.221 142.086 119.056 143.451 122.727 144.373L122.888 144.525V145.473C122.092 147.463 121.305 148.458 120.528 148.458C118.039 148.458 115.575 147.147 113.137 144.525C112.404 143.394 112.037 142.503 112.037 141.852V139.502C112.037 136.76 113.503 134.401 116.434 132.423C117.717 131.69 119.028 131.324 120.367 131.324ZM130.289 131.4H132.346C135.05 131.4 136.999 133.504 138.193 137.711L138.505 140.403C138.505 143.043 137.188 145.413 134.554 147.51C133.694 148.142 132.696 148.458 131.559 148.458C128.47 148.458 125.889 146.774 123.817 143.407C123.393 142.68 123.182 142.048 123.182 141.511V139.133C123.182 136.258 124.707 133.943 127.759 132.186L130.289 131.4ZM127.503 139.066C128.173 141.448 129.218 142.639 130.64 142.639H131.379C132.535 142.639 133.281 141.944 133.616 140.554V140.109C133.085 137.424 132.241 136.081 131.085 136.081H130.782C129.563 136.081 128.47 137.026 127.503 138.915V139.066ZM140.382 131.447H140.856C144.526 132.079 146.362 133.128 146.362 134.593L147.47 135.702L149.356 133.02C150.639 132.18 152.161 131.656 153.924 131.447H154.398C155.067 131.788 155.645 134.309 156.132 139.009V147.358C156.132 148.091 155.658 148.458 154.71 148.458H153.298C152.073 148.458 151.233 148.249 150.778 147.832L151.09 139.009C149.435 140.134 148.437 141.394 148.096 142.791L147.47 143.255H146.996L145.575 140.583C145.259 140.45 144.946 139.976 144.637 139.161C144.384 139.161 144.068 138.899 143.689 138.375V138.536L144.002 147.832C143.547 148.249 142.707 148.458 141.481 148.458H140.069C139.121 148.458 138.648 148.091 138.648 147.358V139.009C139.134 134.309 139.712 131.788 140.382 131.447ZM163.59 131.4H165.646C168.35 131.4 170.3 133.504 171.494 137.711L171.806 140.403C171.806 143.043 170.489 145.413 167.855 147.51C166.995 148.142 165.997 148.458 164.86 148.458C161.771 148.458 159.19 146.774 157.118 143.407C156.694 142.68 156.483 142.048 156.483 141.511V139.133C156.483 136.258 158.008 133.943 161.06 132.186L163.59 131.4ZM160.804 139.066C161.474 141.448 162.519 142.639 163.941 142.639H164.68C165.836 142.639 166.582 141.944 166.916 140.554V140.109C166.386 137.424 165.542 136.081 164.386 136.081H164.083C162.864 136.081 161.771 137.026 160.804 138.915V139.066ZM181.956 131.362H182.733C182.979 131.362 183.185 131.772 183.349 132.594C183.349 133.826 182.167 134.442 179.805 134.442L179.653 134.593H179.492C179.801 142.472 180.06 146.682 180.269 147.226C180.269 147.801 179.343 148.211 177.492 148.458H175.957C174.826 148.3 174.261 148.044 174.261 147.69C174.671 141.777 174.978 138.387 175.18 137.522V135.37L174.877 135.058C174.251 135.367 173.326 135.522 172.1 135.522L171.948 135.37V134.593C172.163 132.647 172.934 131.675 174.261 131.675C175.84 131.466 178.405 131.362 181.956 131.362ZM198 131.419H198.208C198.909 131.722 199.361 132.493 199.563 133.731L199.44 139.142L199.26 139.407L201.364 139.199L202.207 140.251V141.094L200.947 142.355H199.26V143.615L199.658 146.022L199.904 147.235C199.614 148.05 198.979 148.458 198 148.458H197.365C196.386 148.458 195.665 148.038 195.204 147.197C196.089 145.378 196.531 143.764 196.531 142.355H192.74C190.074 141.811 188.741 141.249 188.741 140.668V139.407C188.741 139.098 190.576 137.12 194.247 133.475C195.289 132.104 196.54 131.419 198 131.419ZM192.532 138.991L194.266 138.801L196.739 138.848V136.252L196.948 135.408L196.739 134.783L192.532 138.991ZM208.405 131.447H213.447C216.7 132.338 218.327 133.965 218.327 136.328C218.327 137.92 217.436 139.338 215.655 140.583V140.895C217.266 142.19 218.839 144.029 220.374 146.411V146.572C218.801 147.614 217.54 148.189 216.593 148.297L212.347 142.156L211.873 142.004L212.025 142.156L211.873 142.942V143.103L212.347 147.51C212.347 148.034 212.031 148.297 211.4 148.297V148.458C208.879 148.357 207.618 147.936 207.618 147.197L207.78 146.098V136.963L207.931 136.328L207.78 135.702C207.78 132.865 207.988 131.447 208.405 131.447ZM211.4 135.228L211.561 138.223L211.712 138.375H211.873C213.061 137.85 213.952 137.064 214.546 136.015V135.854C213.958 134.805 213.225 134.281 212.347 134.281H211.873C211.665 134.281 211.507 134.597 211.4 135.228ZM227.671 131.4H229.727C232.431 131.4 234.38 133.504 235.575 137.711L235.887 140.403C235.887 143.043 234.57 145.413 231.935 147.51C231.076 148.142 230.078 148.458 228.941 148.458C225.851 148.458 223.271 146.774 221.198 143.407C220.775 142.68 220.564 142.048 220.564 141.511V139.133C220.564 136.258 222.089 133.943 225.141 132.186L227.671 131.4ZM224.885 139.066C225.555 141.448 226.6 142.639 228.022 142.639H228.761C229.917 142.639 230.662 141.944 230.997 140.554V140.109C230.467 137.424 229.623 136.081 228.467 136.081H228.164C226.944 136.081 225.851 137.026 224.885 138.915V139.066ZM243.355 131.409H246.7C247.907 131.409 248.864 132.578 249.571 134.916C252.225 140.475 253.552 144.512 253.552 147.027C253.766 147.027 253.874 147.292 253.874 147.823L253.4 148.458L251.486 148.297H248.775C248.51 148.297 248.137 147.074 247.657 144.629L247.506 144.477C247.506 143.947 247.025 143.681 246.065 143.681C245.042 143.359 244.088 143.198 243.203 143.198C242.565 143.381 242.246 144.019 242.246 145.112C242.006 145.112 241.741 145.643 241.45 146.704C240.812 147.753 240.385 148.284 240.171 148.297H239.214L238.579 148.135L238.105 148.297C237.157 148.297 236.465 148.031 236.029 147.501V147.339C236.029 145.905 238.048 141.18 242.085 133.162C242.609 132.082 243.033 131.498 243.355 131.409ZM245.43 136.347L243.999 139.853V140.014C243.999 140.406 244.9 140.671 246.7 140.81L246.861 140.649V140.488L245.752 136.347H245.43ZM254.964 131.343H256.859L257.02 131.504L257.181 131.343H260.195C263.455 131.343 265.461 134.142 266.212 139.739V140.213C266.212 143.094 264.734 145.577 261.777 147.662C260.665 148.192 259.345 148.458 257.816 148.458C255.384 148.325 254.168 147.902 254.168 147.188L254.329 146.079V136.887L254.48 136.252L254.329 135.617C254.329 132.768 254.54 131.343 254.964 131.343ZM257.816 135.304C258.025 135.778 258.129 136.463 258.129 137.361V141.805L258.451 142.118H259.56C260.785 142.118 261.575 141.379 261.929 139.9V139.426C261.367 136.571 260.47 135.143 259.238 135.143H258.925L257.816 135.304Z" fill="#121212"/>
<defs>
<linearGradient id="paint0_linear_10_1292" x1="416.698" y1="486.889" x2="237.043" y2="590.743" gradientUnits="userSpaceOnUse">
<stop stop-color="#179D5D"/>
<stop offset="1" stop-color="#2CB774"/>
</linearGradient>
</defs>
</svg>
