<svg width="267" height="79" viewBox="0 0 267 79" fill="none" xmlns="http://www.w3.org/2000/svg">
<path d="M256.682 78.9789H9.87237C4.34384 78.9789 0 74.6351 0 69.1066V9.87237C0 4.34384 4.34384 0 9.87237 0H256.682C262.21 0 266.554 4.34384 266.554 9.87237V69.1066C266.554 74.6351 262.21 78.9789 256.682 78.9789Z" fill="black"/>
<path d="M256.682 1.57958C261.223 1.57958 264.974 5.33108 264.974 9.87237V69.1066C264.974 73.6479 261.223 77.3994 256.682 77.3994H9.87237C5.33108 77.3994 1.57958 73.6479 1.57958 69.1066V9.87237C1.57958 5.33108 5.33108 1.57958 9.87237 1.57958H256.682ZM256.682 0H9.87237C4.34384 0 0 4.54129 0 9.87237V69.1066C0 74.6351 4.34384 78.9789 9.87237 78.9789H256.682C262.21 78.9789 266.554 74.6351 266.554 69.1066V9.87237C266.554 4.54129 262.21 0 256.682 0Z" fill="#A6A6A6"/>
<path d="M93.59 20.1398C93.59 21.7194 93.1951 23.1015 92.2079 24.0887C91.0232 25.2734 89.6411 25.8658 87.864 25.8658C86.087 25.8658 84.7049 25.2734 83.5202 24.0887C82.3355 22.904 81.7432 21.5219 81.7432 19.7449C81.7432 17.9679 82.3355 16.5857 83.5202 15.401C84.7049 14.2164 86.087 13.624 87.864 13.624C88.6538 13.624 89.4436 13.8215 90.2334 14.2164C91.0232 14.6113 91.6155 15.0062 92.0104 15.5985L91.0232 16.5857C90.2334 15.5985 89.2462 15.2036 87.864 15.2036C86.6793 15.2036 85.4947 15.5985 84.7049 16.5857C83.7176 17.3755 83.3227 18.5602 83.3227 19.9423C83.3227 21.3245 83.7176 22.5092 84.7049 23.2989C85.6921 24.0887 86.6793 24.6811 87.864 24.6811C89.2462 24.6811 90.2334 24.2862 91.2206 23.2989C91.813 22.7066 92.2079 21.9168 92.2079 20.9296H87.864V19.35H93.59V20.1398ZM102.673 15.2036H97.3415V18.9551H102.278V20.3372H97.3415V24.0887H102.673V25.6683H95.7619V13.8215H102.673V15.2036ZM109.188 25.6683H107.609V15.2036H104.252V13.8215H112.545V15.2036H109.188V25.6683ZM118.271 25.6683V13.8215H119.851V25.6683H118.271ZM126.564 25.6683H124.984V15.2036H121.628V13.8215H129.723V15.2036H126.366V25.6683H126.564ZM145.321 24.0887C144.137 25.2734 142.754 25.8658 140.977 25.8658C139.2 25.8658 137.818 25.2734 136.634 24.0887C135.449 22.904 134.857 21.5219 134.857 19.7449C134.857 17.9679 135.449 16.5857 136.634 15.401C137.818 14.2164 139.2 13.624 140.977 13.624C142.754 13.624 144.137 14.2164 145.321 15.401C146.506 16.5857 147.098 17.9679 147.098 19.7449C147.098 21.5219 146.506 22.904 145.321 24.0887ZM137.818 23.1015C138.608 23.8913 139.793 24.4836 140.977 24.4836C142.162 24.4836 143.347 24.0887 144.137 23.1015C144.926 22.3117 145.519 21.127 145.519 19.7449C145.519 18.3628 145.124 17.1781 144.137 16.3883C143.347 15.5985 142.162 15.0062 140.977 15.0062C139.793 15.0062 138.608 15.401 137.818 16.3883C137.028 17.1781 136.436 18.3628 136.436 19.7449C136.436 21.127 136.831 22.3117 137.818 23.1015ZM149.27 25.6683V13.8215H151.047L156.773 23.1015V13.8215H158.353V25.6683H156.773L150.652 15.9934V25.6683H149.27Z" fill="white" stroke="white" stroke-width="0.394895" stroke-miterlimit="10"/>
<path d="M134.462 43.0437C129.723 43.0437 125.971 46.5977 125.971 51.5339C125.971 56.2727 129.723 60.0242 134.462 60.0242C139.2 60.0242 142.952 56.4701 142.952 51.5339C142.952 46.4003 139.2 43.0437 134.462 43.0437ZM134.462 56.4701C131.895 56.4701 129.723 54.2982 129.723 51.3365C129.723 48.3748 131.895 46.2029 134.462 46.2029C137.028 46.2029 139.2 48.1773 139.2 51.3365C139.2 54.2982 137.028 56.4701 134.462 56.4701ZM116.099 43.0437C111.36 43.0437 107.609 46.5977 107.609 51.5339C107.609 56.2727 111.36 60.0242 116.099 60.0242C120.838 60.0242 124.589 56.4701 124.589 51.5339C124.589 46.4003 120.838 43.0437 116.099 43.0437ZM116.099 56.4701C113.532 56.4701 111.36 54.2982 111.36 51.3365C111.36 48.3748 113.532 46.2029 116.099 46.2029C118.666 46.2029 120.838 48.1773 120.838 51.3365C120.838 54.2982 118.666 56.4701 116.099 56.4701ZM94.1824 45.6105V49.1646H102.673C102.475 51.139 101.685 52.7186 100.698 53.7059C99.5135 54.8905 97.539 56.2727 94.1824 56.2727C88.8513 56.2727 84.9024 52.1263 84.9024 46.7952C84.9024 41.4641 89.0488 37.3177 94.1824 37.3177C96.9467 37.3177 99.1186 38.5024 100.698 39.8845L103.265 37.3177C101.093 35.3432 98.3288 33.7637 94.3799 33.7637C87.2717 33.7637 81.1509 39.6871 81.1509 46.7952C81.1509 53.9033 87.2717 59.8267 94.3799 59.8267C98.3288 59.8267 101.093 58.642 103.462 56.0752C105.832 53.7059 106.622 50.3492 106.622 47.7824C106.622 46.9926 106.622 46.2029 106.424 45.6105H94.1824ZM183.824 48.3748C183.034 46.4003 181.059 43.0437 176.715 43.0437C172.372 43.0437 168.818 46.4003 168.818 51.5339C168.818 56.2727 172.372 60.0242 177.11 60.0242C180.862 60.0242 183.231 57.6548 184.021 56.2727L181.257 54.2982C180.269 55.6803 179.085 56.6676 177.11 56.6676C175.136 56.6676 173.951 55.8778 172.964 54.1007L184.218 49.362L183.824 48.3748ZM172.372 51.139C172.372 47.9799 174.938 46.2029 176.715 46.2029C178.098 46.2029 179.48 46.9926 179.875 47.9799L172.372 51.139ZM163.092 59.2344H166.843V34.5535H163.092V59.2344ZM157.168 44.8207C156.181 43.8335 154.601 42.8463 152.627 42.8463C148.48 42.8463 144.531 46.5977 144.531 51.3365C144.531 56.0752 148.283 59.6293 152.627 59.6293C154.601 59.6293 156.181 58.642 156.971 57.6548H157.168V58.8395C157.168 61.9986 155.391 63.7757 152.627 63.7757C150.455 63.7757 148.875 62.1961 148.48 60.814L145.321 62.1961C146.309 64.368 148.678 67.1323 152.824 67.1323C157.168 67.1323 160.722 64.5655 160.722 58.4446V43.4386H157.168V44.8207ZM152.824 56.4701C150.257 56.4701 148.086 54.2982 148.086 51.3365C148.086 48.3748 150.257 46.2029 152.824 46.2029C155.391 46.2029 157.366 48.3748 157.366 51.3365C157.366 54.2982 155.391 56.4701 152.824 56.4701ZM201.001 34.5535H192.116V59.2344H195.868V49.9544H201.001C205.148 49.9544 209.097 46.9926 209.097 42.2539C209.097 37.5152 205.148 34.5535 201.001 34.5535ZM201.199 46.4003H195.868V37.9101H201.199C203.963 37.9101 205.543 40.2794 205.543 42.0565C205.345 44.2284 203.766 46.4003 201.199 46.4003ZM223.905 42.8463C221.141 42.8463 218.377 44.0309 217.39 46.5977L220.746 47.9799C221.536 46.5977 222.721 46.2029 224.103 46.2029C226.077 46.2029 227.854 47.3875 228.052 49.362V49.5595C227.459 49.1646 225.88 48.5722 224.3 48.5722C220.746 48.5722 217.192 50.5467 217.192 54.1007C217.192 57.4574 220.154 59.6293 223.313 59.6293C225.88 59.6293 227.064 58.4446 228.052 57.2599H228.249V59.2344H231.803V49.7569C231.408 45.4131 228.052 42.8463 223.905 42.8463ZM223.51 56.4701C222.326 56.4701 220.549 55.8778 220.549 54.2982C220.549 52.3237 222.721 51.7314 224.498 51.7314C226.077 51.7314 226.867 52.1263 227.854 52.5212C227.459 54.8905 225.485 56.4701 223.51 56.4701ZM244.242 43.4386L240.096 54.1007H239.899L235.555 43.4386H231.606L238.122 58.4446L234.37 66.7374H238.122L248.191 43.4386H244.242ZM211.071 59.2344H214.823V34.5535H211.071V59.2344Z" fill="white"/>
<path d="M20.5344 14.8096C19.9421 15.4019 19.7446 16.3891 19.7446 17.5738V61.2097C19.7446 62.3944 20.1395 63.3816 20.7319 63.974L20.9293 64.1714L45.4128 39.6879V39.293L20.5344 14.8096Z" fill="url(#paint0_linear_37_7352)"/>
<path d="M53.3107 47.9803L45.2153 39.8849V39.2926L53.3107 31.1973L53.5081 31.3947L63.183 36.9232C65.9473 38.5028 65.9473 41.0696 63.183 42.6492L53.3107 47.9803Z" fill="url(#paint1_linear_37_7352)"/>
<path d="M53.5084 47.783L45.2156 39.4902L20.5347 64.1712C21.5219 65.1584 22.904 65.1584 24.6811 64.3686L53.5084 47.783Z" fill="url(#paint2_linear_37_7352)"/>
<path d="M53.5084 31.1973L24.6811 14.8092C22.904 13.822 21.5219 14.0194 20.5347 15.0067L45.2156 39.4901L53.5084 31.1973Z" fill="url(#paint3_linear_37_7352)"/>
<path opacity="0.2" d="M53.3109 47.585L24.6811 63.7756C23.1015 64.7629 21.7194 64.5654 20.7321 63.7756L20.5347 63.9731L20.7321 64.1705C21.7194 64.9603 23.1015 65.1578 24.6811 64.1705L53.3109 47.585Z" fill="black"/>
<path opacity="0.12" d="M20.5344 63.7763C19.9421 63.1839 19.7446 62.1967 19.7446 61.012V61.2094C19.7446 62.3941 20.1395 63.3814 20.7319 63.9737V63.7763H20.5344ZM63.183 42.057L53.3107 47.5856L53.5081 47.783L63.183 42.2545C64.5652 41.4647 65.1575 40.4775 65.1575 39.4902C65.1575 40.4775 64.3677 41.2673 63.183 42.057Z" fill="black"/>
<path opacity="0.25" d="M24.6808 15.0064L63.183 36.923C64.3677 37.7128 65.1575 38.5026 65.1575 39.4898C65.1575 38.5026 64.5652 37.5154 63.183 36.7256L24.6808 14.8089C21.9165 13.2293 19.7446 14.414 19.7446 17.5732V17.7706C19.7446 14.8089 21.9165 13.4268 24.6808 15.0064Z" fill="white"/>
<defs>
<linearGradient id="paint0_linear_37_7352" x1="43.0434" y1="17.1987" x2="9.90583" y2="50.3343" gradientUnits="userSpaceOnUse">
<stop stop-color="#00A0FF"/>
<stop offset="0.007" stop-color="#00A1FF"/>
<stop offset="0.26" stop-color="#00BEFF"/>
<stop offset="0.512" stop-color="#00D2FF"/>
<stop offset="0.76" stop-color="#00DFFF"/>
<stop offset="1" stop-color="#00E3FF"/>
</linearGradient>
<linearGradient id="paint1_linear_37_7352" x1="66.8042" y1="39.492" x2="19.0279" y2="39.492" gradientUnits="userSpaceOnUse">
<stop stop-color="#FFE000"/>
<stop offset="0.409" stop-color="#FFBD00"/>
<stop offset="0.775" stop-color="#FFA500"/>
<stop offset="1" stop-color="#FF9C00"/>
</linearGradient>
<linearGradient id="paint2_linear_37_7352" x1="49.0204" y1="44.0236" x2="4.08533" y2="88.9587" gradientUnits="userSpaceOnUse">
<stop stop-color="#FF3A44"/>
<stop offset="1" stop-color="#C31162"/>
</linearGradient>
<linearGradient id="paint3_linear_37_7352" x1="14.4079" y1="0.348171" x2="34.4745" y2="20.4147" gradientUnits="userSpaceOnUse">
<stop stop-color="#32A071"/>
<stop offset="0.069" stop-color="#2DA771"/>
<stop offset="0.476" stop-color="#15CF74"/>
<stop offset="0.801" stop-color="#06E775"/>
<stop offset="1" stop-color="#00F076"/>
</linearGradient>
</defs>
</svg>
