<svg width="709" height="608" viewBox="0 0 709 608" fill="none" xmlns="http://www.w3.org/2000/svg">
<path fill-rule="evenodd" clip-rule="evenodd" d="M334.626 607.642C268.647 609.554 202.775 603.896 145.637 588.694C83.8809 572.263 15.794 551.232 2.10718 519.173C-11.3734 487.597 42.8558 459.464 78.6378 431.761C106.768 409.982 145.146 393.371 186.379 376.507C233.11 357.394 272.012 328.608 334.626 327.061C397.621 325.504 440.608 354.267 494.992 368.883C557.485 385.678 641.202 390.075 676.652 418.982C714.09 449.511 715.529 489.915 682.003 521.38C649.877 551.53 571.44 562.214 506.974 578.223C451.736 591.94 397.363 605.824 334.626 607.642Z" fill="#212121" fill-opacity="0.5"/>
<path d="M227.021 87.4819C221.757 76.1837 213.39 61.5923 198.712 52.6104C187.333 66.021 144.663 106.253 116.623 203.785L114.591 231.419C172.297 224.104 223.095 201.753 232.848 167.21L233.864 150.752L234.88 134.293V117.225L234.583 114.787C233.435 105.374 231.026 96.0769 227.021 87.4819Z" fill="white" fill-opacity="0.51" stroke="#333333" stroke-width="1.82872"/>
<path fill-rule="evenodd" clip-rule="evenodd" d="M116.468 205.869L111.847 256.31L277.55 249.707L271.861 88.7788C306.268 87.1533 431.325 83.9022 656.299 83.9022C665.607 82.4326 686.385 88.9349 701.337 123.83C704.716 131.717 706.284 140.22 706.812 148.784C707.469 159.434 708.169 173.632 708.998 190.464C710.414 219.212 712.209 255.646 714.818 295.222L912.321 288.719C911.25 266.547 912.28 243.081 913.315 219.489C917.782 117.682 922.352 13.5373 758.708 1L265.358 12.7851C247.771 16.4878 223.773 28.287 199.024 52.8032C213.507 61.8 221.793 76.264 227.019 87.4815C231.024 96.0765 233.433 105.374 234.581 114.787L234.879 117.225V134.293L233.863 150.752L232.847 167.21C223.093 201.753 172.296 224.104 114.589 231.419L116.468 205.869ZM193.414 58.5686C185.15 67.3749 176.85 77.6283 168.723 89.4991C178.661 75.1671 187.437 65.2191 193.414 58.5686ZM119.784 193.214C118.811 196.249 117.852 199.33 116.909 202.458C116.799 202.823 116.72 203.206 116.678 203.587C117.695 200.054 118.731 196.598 119.784 193.214Z" fill="#FEB018"/>
<path d="M116.468 205.869L117.38 205.937L115.557 205.786L116.468 205.869ZM111.847 256.31L110.937 256.227L110.841 257.266L111.884 257.224L111.847 256.31ZM277.55 249.707L277.586 250.62L278.496 250.584L278.464 249.674L277.55 249.707ZM271.861 88.7788L271.817 87.8655L270.915 87.9081L270.947 88.8111L271.861 88.7788ZM656.299 83.9022V84.8166H656.371L656.442 84.8054L656.299 83.9022ZM701.337 123.83L700.496 124.19V124.19L701.337 123.83ZM706.812 148.784L707.725 148.728L706.812 148.784ZM708.998 190.464L708.085 190.509V190.509L708.998 190.464ZM714.818 295.222L713.906 295.282L713.964 296.165L714.849 296.135L714.818 295.222ZM912.321 288.719L912.351 289.633L913.279 289.603L913.234 288.675L912.321 288.719ZM913.315 219.489L914.229 219.529L913.315 219.489ZM758.708 1L758.778 0.0883093L758.732 0.084802L758.686 0.0858985L758.708 1ZM265.358 12.7851L265.337 11.871L265.252 11.873L265.17 11.8904L265.358 12.7851ZM199.024 52.8032L198.38 52.1535L197.557 52.9687L198.541 53.5799L199.024 52.8032ZM227.019 87.4815L226.191 87.8677L227.019 87.4815ZM234.581 114.787L233.674 114.897L234.581 114.787ZM234.879 117.225H235.793V117.169L235.786 117.114L234.879 117.225ZM234.879 134.293L235.791 134.349L235.793 134.321V134.293H234.879ZM233.863 150.752L234.775 150.808L233.863 150.752ZM232.847 167.21L233.727 167.459L233.753 167.364L233.759 167.266L232.847 167.21ZM114.589 231.419L113.677 231.352L113.595 232.466L114.704 232.326L114.589 231.419ZM193.414 58.5686L194.094 59.1798L192.747 57.9429L193.414 58.5686ZM168.723 89.4991L167.968 88.9826L169.474 90.0202L168.723 89.4991ZM119.784 193.214L120.657 193.486L118.914 192.935L119.784 193.214ZM116.909 202.458L117.785 202.722H117.785L116.909 202.458ZM116.678 203.587L115.769 203.485L117.557 203.839L116.678 203.587ZM115.557 205.786L110.937 256.227L112.758 256.394L117.378 205.953L115.557 205.786ZM111.884 257.224L277.586 250.62L277.514 248.793L111.811 255.397L111.884 257.224ZM278.464 249.674L272.774 88.7465L270.947 88.8111L276.636 249.739L278.464 249.674ZM271.904 89.6922C306.289 88.0677 431.329 84.8166 656.299 84.8166V82.9878C431.322 82.9878 306.247 86.2389 271.817 87.8655L271.904 89.6922ZM656.442 84.8054C665.181 83.4255 685.638 89.5133 700.496 124.19L702.177 123.469C687.132 88.3565 666.033 81.4396 656.157 82.999L656.442 84.8054ZM700.496 124.19C703.823 131.953 705.375 140.347 705.9 148.841L707.725 148.728C707.192 140.093 705.609 131.48 702.177 123.469L700.496 124.19ZM705.9 148.841C706.556 159.483 707.255 173.674 708.085 190.509L709.911 190.419C709.082 173.589 708.382 159.385 707.725 148.728L705.9 148.841ZM708.085 190.509C709.501 219.257 711.296 255.698 713.906 295.282L715.731 295.161C713.122 255.594 711.327 219.167 709.911 190.419L708.085 190.509ZM714.849 296.135L912.351 289.633L912.291 287.806L714.788 294.308L714.849 296.135ZM913.234 288.675C912.166 266.553 913.193 243.13 914.229 219.529L912.402 219.449C911.367 243.032 910.335 266.542 911.407 288.764L913.234 288.675ZM914.229 219.529C916.459 168.692 918.75 116.955 899.882 76.3826C890.43 56.057 875.674 38.5371 852.991 25.3213C830.323 12.1141 799.779 3.22957 758.778 0.0883093L758.638 1.91169C799.458 5.03906 829.711 13.874 852.071 26.9014C874.416 39.9202 888.922 57.1502 898.224 77.1537C916.866 117.239 914.638 168.478 912.402 219.449L914.229 219.529ZM758.686 0.0858985L265.337 11.871L265.38 13.6992L758.73 1.9141L758.686 0.0858985ZM265.17 11.8904C247.379 15.6359 223.23 27.5386 198.38 52.1535L199.667 53.4528C224.317 29.0354 248.163 17.3396 265.547 13.6799L265.17 11.8904ZM227.848 87.0954C222.602 75.8353 214.223 61.168 199.506 52.0264L198.541 53.5799C212.792 62.432 220.984 76.6926 226.191 87.8677L227.848 87.0954ZM235.489 114.676C234.331 105.184 231.9 95.7911 227.848 87.0954L226.191 87.8677C230.148 96.3619 232.535 105.564 233.674 114.897L235.489 114.676ZM235.786 117.114L235.489 114.676L233.674 114.897L233.971 117.336L235.786 117.114ZM235.793 134.293V117.225H233.964V134.293H235.793ZM234.775 150.808L235.791 134.349L233.966 134.237L232.95 150.695L234.775 150.808ZM233.759 167.266L234.775 150.808L232.95 150.695L231.934 167.154L233.759 167.266ZM114.704 232.326C143.629 228.659 170.865 221.22 192.117 210.339C213.348 199.468 228.75 185.084 233.727 167.459L231.967 166.962C227.19 183.878 212.316 197.942 191.284 208.711C170.272 219.469 143.256 226.863 114.474 230.512L114.704 232.326ZM115.556 205.802L113.677 231.352L115.501 231.486L117.38 205.937L115.556 205.802ZM192.747 57.9429C184.45 66.7847 176.121 77.0748 167.968 88.9826L169.477 90.0157C177.579 78.1818 185.85 67.9651 194.081 59.1943L192.747 57.9429ZM192.734 57.9574C186.747 64.6191 177.942 74.5999 167.971 88.9781L169.474 90.0202C179.38 75.7343 188.127 65.8191 194.094 59.1798L192.734 57.9574ZM118.914 192.935C117.939 195.975 116.978 199.061 116.034 202.194L117.785 202.722C118.726 199.599 119.683 196.523 120.655 193.494L118.914 192.935ZM116.034 202.194C115.908 202.612 115.818 203.049 115.769 203.485L117.587 203.688C117.623 203.363 117.69 203.035 117.785 202.722L116.034 202.194ZM118.911 192.943C117.856 196.332 116.818 199.795 115.799 203.334L117.557 203.839C118.572 200.314 119.606 196.863 120.657 193.486L118.911 192.943Z" fill="#333333"/>
<path d="M652.237 281.406H708.927L691.615 121.265C688.537 92.7957 664.152 71.4365 635.525 72.1354L270.033 81.0586L275.519 231.827H301.934L296.245 115.601C329.839 117.227 437.991 119.502 601.845 115.601C630.089 126.167 641.468 126.167 652.237 281.406Z" fill="#C49140"/>
<path d="M270.033 81.0586L275.519 231.827H301.934L296.245 115.601C329.839 117.227 437.991 119.502 601.845 115.601C630.089 126.167 641.468 126.167 652.237 281.406H708.927L691.615 121.265C688.537 92.7957 664.152 71.4365 635.525 72.1354L270.033 81.0586ZM270.033 81.0586L267.188 11.9734" stroke="#333333" stroke-width="1.82872"/>
<path d="M684.855 237.772C683.883 231.212 681.211 217.799 678.295 216.633L687.042 207.157L695.789 229.025L684.855 237.772Z" fill="#D9D9D9" stroke="#212121" stroke-width="1.45787"/>
<path d="M695.792 210.072C670.279 227.566 633.833 224.65 665.906 162.691H690.69L708.913 190.39L695.792 210.072Z" fill="#F7A387" stroke="#212121" stroke-width="1.45787"/>
<path d="M612.691 258.182C628.728 269.116 650.304 264.888 666.633 259.64V271.303C655.456 274.219 629.02 278.301 612.691 271.303V258.182Z" fill="#F7A387" stroke="#212121" stroke-width="1.45787"/>
<path d="M707.456 279.321C697.251 280.293 674.8 280.925 666.637 275.676C655.698 268.643 653.511 251.418 695.495 230.63L705.269 230.482L707.456 279.321Z" fill="#CB645B"/>
<path d="M695.794 230.482C695.694 230.532 695.594 230.581 695.495 230.63M695.495 230.63C653.511 251.418 655.698 268.643 666.637 275.676C674.8 280.925 697.251 280.293 707.456 279.321L705.269 230.482L695.495 230.63Z" stroke="#212121" stroke-width="1.45787"/>
<path d="M679.75 174.352C648.41 163.418 638.933 125.515 705.992 155.399C711.824 176.782 721.155 226.981 711.825 256.722C697.246 247.975 682.667 218.817 689.957 206.425C694.573 201.323 701.911 190.097 694.33 186.015H684.854L679.75 174.352Z" fill="#57433C" stroke="#212121" stroke-width="1.45787"/>
<path d="M590.094 245.789L596.654 260.368L606.13 276.405H612.691V260.368L603.944 239.229L590.094 245.789Z" fill="#1CB90F" stroke="#212121" stroke-width="1.45787"/>
<path d="M691.861 131.043L704.052 285.468L750.177 251.332L734.937 122.102L721.933 67.2405L675.402 44.0767L269.628 67.2405L270.34 87.9661C335.43 86.3785 483.917 82.4652 630.737 82.2833C637.715 82.2746 644.708 83.2057 651.11 85.9821C666.448 92.6338 687.947 106.253 691.861 131.043Z" fill="#F9D8B9" stroke="#333333" stroke-width="1.82872"/>
<path d="M548.204 39.2001C483.182 38.9292 337.656 42.695 270.034 58.3001L271.05 81.6671C276.74 80.5834 339.119 74.149 538.45 68.4597C766.594 61.9481 685.968 109.911 725.996 290.345H847.302C816.417 0.187395 729.451 20.5065 548.204 39.2001Z" fill="#F9C057"/>
<path d="M514.878 116.413L525.444 308.226" stroke="#566A6B" stroke-width="8.53405"/>
<path d="M492.936 198.503H520.57L524.634 291.971L492.936 294.409C480.744 285.74 468.553 226.949 492.936 198.503Z" fill="#3C3C3E" stroke="#333333" stroke-width="1.82872"/>
<path d="M26 476.063C48.7575 376.905 101.181 372.841 140.6 393.16L193.836 502.884C179.613 513.45 170.266 497.601 163.764 480.939C130.847 470.102 82.8937 423.639 26 476.063Z" fill="#106F41" stroke="#333333" stroke-width="1.82872"/>
<path d="M50.7886 426.077C58.9162 405.351 71.5141 396.411 84.5184 402.507C69.0758 406.977 55.3943 421.878 50.7886 426.077Z" fill="#F9F9F9"/>
<circle cx="102.804" cy="493.129" r="64.2086" fill="#090008"/>
<circle cx="102.802" cy="495.471" r="39.5017" stroke="white" stroke-width="4.26702"/>
<circle cx="102.802" cy="495.471" r="35.9501" fill="#0E0101"/>
<circle cx="102.802" cy="495.471" r="31.9371" fill="#D0BC03"/>
<ellipse cx="102.714" cy="495.382" rx="12.5087" ry="12.5087" fill="#031603"/>
<ellipse cx="86.2497" cy="479.452" rx="3.45985" ry="7.66475" transform="rotate(-41.6713 86.2497 479.452)" fill="#031603"/>
<ellipse cx="118.122" cy="479.208" rx="3.45985" ry="7.66475" transform="rotate(45 118.122 479.208)" fill="#031603"/>
<ellipse cx="118.12" cy="511.676" rx="3.45985" ry="7.66475" transform="rotate(135 118.12 511.676)" fill="#031603"/>
<ellipse cx="87.2482" cy="510.789" rx="3.45985" ry="7.66475" transform="rotate(-135 87.2482 510.789)" fill="#031603"/>
<path d="M454.731 346.426C466.651 349.406 495.857 356.016 517.314 358.617V368.371C502.142 374.331 455.869 386.251 392.148 386.251C326.314 381.375 358.825 287.094 454.731 346.426Z" fill="#3C3C3E" stroke="#333333" stroke-width="1.82872"/>
<path d="M393.776 385.438L397.84 473.217" stroke="#566A6B" stroke-width="8.53405"/>
<path d="M191.397 509.79C143.444 429.326 107.195 322.041 111.746 253.768L282.427 247.266L300.308 485.407L525.445 493.535C525.445 528.044 515.142 532.44 399.074 532.545C396.139 532.548 393.124 532.768 390.22 533.193C362.324 537.273 342.339 539.262 313.976 534.307C297.047 531.349 279.405 533.038 262.223 533.365C235.763 533.868 205.812 523.604 191.397 509.79Z" fill="#2CB774" stroke="#333333" stroke-width="1.82872"/>
<path d="M275.519 231.419H302.34L313.068 414.941C313.5 422.333 312.792 429.902 314.4 437.13C317.582 451.436 328.193 470.849 340.947 472.405L485.619 468.341L511.628 491.911V509.792H316.765C316.098 509.792 315.441 509.637 314.844 509.339C301.545 502.689 291.984 490.361 288.854 475.825L288.279 473.155C288.171 472.656 288.104 472.148 288.077 471.638L275.519 231.419Z" fill="#0D703F" stroke="#333333" stroke-width="1.82872"/>
<path d="M493.747 501.258C487.245 494.62 472.615 481.751 474.647 469.154L296.651 474.843C299.496 478.365 308.03 491.911 323.472 501.258H493.747Z" fill="#225135" stroke="#333333" stroke-width="1.82872"/>
<path d="M638.909 281.454L713.195 278.966V299.692H679.059L656.301 317.573L660.365 486.628H540.482L538.45 436.643C554.299 434.611 603.878 434.611 608.348 426.077L610.608 308.95C610.726 302.827 611.775 296.589 615.681 291.872C616.781 290.544 618.058 289.177 619.518 287.842C624.698 283.106 631.893 281.689 638.909 281.454Z" fill="#23543B" stroke="#333333" stroke-width="1.82872"/>
<path d="M552.67 441.113L610.783 434.204L631.102 459.806C586.806 478.906 559.578 474.842 552.67 441.113Z" fill="#245137" stroke="#333333" stroke-width="1.82872"/>
<path d="M604.552 354.083L644.108 355.774V399.257C612.898 390.077 583.347 380.5 592.323 360.513C594.381 355.93 599.534 353.869 604.552 354.083Z" fill="#3D3D3E" stroke="#333333" stroke-width="1.82872"/>
<path d="M111.339 269.62L184.081 266.369C187.603 274.361 193.428 302.13 184.081 318.792C169.045 317.844 124.343 316.76 124.343 353.741C111.339 342.362 93.1327 301.155 111.339 269.62Z" fill="#3C3C3E" stroke="#333333" stroke-width="1.82872"/>
<path d="M137.957 303.148C137.957 315.716 131.771 325.905 124.14 325.905C116.509 325.905 110.323 315.716 110.323 303.148C110.323 290.579 116.509 280.39 124.14 280.39C131.771 280.39 137.957 290.579 137.957 303.148ZM114.039 303.148C114.039 312.336 118.561 319.784 124.14 319.784C129.718 319.784 134.24 312.336 134.24 303.148C134.24 293.96 129.718 286.511 124.14 286.511C118.561 286.511 114.039 293.96 114.039 303.148Z" fill="white" fill-opacity="0.9"/>
<path d="M609.045 269.118C630.914 287.341 677.565 287.341 687.77 253.81C691.853 240.398 700.664 250.165 696.518 259.642C681.21 294.631 625.957 302.94 603.214 277.865C600.784 277.865 594.466 277.428 588.635 275.678C582.803 273.929 586.205 264.258 588.635 259.642H605.4L609.045 269.118Z" fill="#F7A387" stroke="#212121" stroke-width="1.45787"/>
<path d="M143.851 363.088L147.661 342.511C147.802 341.751 147.303 341.001 146.531 340.965C137.77 340.555 134.14 354.726 138.161 370.809L193.836 504.51C200.609 509.115 208.872 520.765 228.378 513.856C216.593 511.418 204.503 504.51 197.9 493.944C193.836 487.441 147.914 388.284 143.851 363.088Z" fill="white" fill-opacity="0.8"/>
<path d="M607.237 341.066L652.66 327.919L639.54 470.79L585.923 486.302L540.743 464.473C553.309 443.674 577.619 399.429 589.353 359.495C591.922 350.753 598.486 343.599 607.237 341.066Z" fill="#2E9CB7" stroke="#212121" stroke-width="1.45787"/>
<path d="M670.626 270.917L912.297 266.369L915.573 478.306H895.659C897.038 484.828 898.485 491.792 900.008 499.226L749.271 491.04C744.629 493.769 732.887 497.635 719.779 499.226H499.408L481.385 480.125L477.289 365.515H510.058L505.962 284.561H527.262L536.273 429.187C536.273 470.119 599.353 505.594 641.134 451.927V302.753C641.134 295.931 653.832 270.917 670.626 270.917Z" fill="#2CB773"/>
<path d="M719.779 499.226H499.408L481.385 480.125L477.289 365.515H510.058L505.962 284.561H527.262L536.273 429.187C536.273 470.119 599.353 505.594 641.134 451.927V302.753C641.134 295.931 653.832 270.917 670.626 270.917L912.297 266.369L915.573 478.306H895.659M719.779 499.226C732.887 497.635 744.629 493.769 749.271 491.04L900.008 499.226C898.485 491.792 897.038 484.828 895.659 478.306M719.779 499.226C729.61 418.272 735.344 392.803 764.017 387.345L805.157 383.706C811.987 383.102 818.858 383.125 825.683 383.775L863.143 387.345C873.995 389.838 881.086 409.41 895.659 478.306" stroke="#333333" stroke-width="1.82872"/>
<rect x="669.098" y="310.055" width="242.408" height="9.34682" fill="#15994D"/>
<rect x="659.348" y="354.96" width="253.177" height="9.34682" fill="#15994D"/>
<path d="M651.22 410.227H734.935L731.559 419.574H651.22V410.227Z" fill="#15994D"/>
<path d="M481.354 457.604L429.743 387.064H398.858L395.607 398.849L445.337 469.181H481.354V457.604Z" fill="#000E0F"/>
<path d="M248.185 172.718L273.13 135.762V147.773L251.419 177.337L248.185 172.718Z" fill="#3C3C3E"/>
<circle cx="8.08394" cy="8.08394" r="8.08394" transform="matrix(-1 0 0 1 255.112 170.407)" fill="#3C3C3E"/>
<path d="M284.562 178.491V106.659L275.74 124.894C270.438 135.854 270.39 148.626 275.609 159.625L284.562 178.491Z" fill="#3C3C3E"/>
<path d="M83.5014 465.497L94.1689 429.735L87.7281 430.02C80.6751 430.332 74.7045 435.328 73.1548 442.216L68.4652 463.059L83.5014 465.497Z" fill="#3D5347" fill-opacity="0.44"/>
<path d="M117.229 487.44L134.704 437.455L125.357 432.985L119.464 431.156L101.787 478.093L117.229 487.44Z" fill="#82917E" fill-opacity="0.71"/>
<path d="M100.567 472.405L113.165 429.735L107.374 429.227H100.466L86.7501 466.31L100.567 472.405Z" fill="white" fill-opacity="0.48"/>
<path d="M117.943 504.32C120.752 501.609 122.999 498.045 123.785 493.501C125.175 485.473 118.346 478.966 110.982 475.482L84.7175 463.056L62.8843 458.584C58.6927 457.726 55.6468 462.484 58.1814 465.931L71.3069 483.782L94.2297 502.065C101.318 507.719 111.419 510.615 117.943 504.32Z" fill="#626F75"/>
<circle cx="3.25107" cy="3.25107" r="3.25107" transform="matrix(-1 0 0 1 74.9678 465.497)" fill="white"/>
<path d="M153.807 67.6463C161.14 55.9966 179.372 19.6524 266.782 12.1749L269.22 56.4707L153.807 67.6463Z" fill="#060612"/>
<path d="M300.586 230.844C297.738 225.826 288.584 216.358 274.75 218.636L276.274 247.627L282.072 247.322L282.173 249.255L299.568 248.341L313.097 247.629L312.792 241.831L322.455 241.323L322.659 245.189L338.12 244.376L337.51 232.78L316.251 233.897L314.115 230.133L300.586 230.844Z" fill="#141610"/>
<path d="M436.872 234.388C452.813 227.707 449.126 189.672 433.015 171.044H402.156V197.274L407.556 228.904L397.527 241.247L412.957 266.706L439.186 258.991L436.872 234.388Z" fill="#A9623B"/>
<path d="M422.986 233.533C428.671 235.807 433.272 235.897 436.872 234.388M436.872 234.388C452.813 227.707 449.126 189.672 433.015 171.044H402.156V197.274L407.556 228.904L397.527 241.247L412.957 266.706L439.186 258.991L436.872 234.388Z" stroke="#212121" stroke-width="1.54293"/>
<path d="M453.847 150.986C431.475 137.099 394.444 144.042 388.272 174.901C380.043 186.473 372.069 217.332 409.873 235.847V214.246C407.302 209.36 401.388 196.502 419.131 202.674C420.159 198.045 420.365 187.553 412.959 182.616C428.645 180.044 458.784 170.118 453.847 150.986Z" fill="#161416"/>
<path d="M409.873 214.246C407.302 209.36 401.388 196.502 419.131 202.674C420.159 198.045 420.365 187.553 412.959 182.616C428.645 180.044 458.784 170.118 453.847 150.986C431.475 137.099 394.444 144.042 388.272 174.901C380.043 186.473 372.069 217.332 409.873 235.847V214.246ZM409.873 214.246C417.279 218.566 419.131 216.046 419.131 214.246" stroke="#212121" stroke-width="1.54293"/>
<path d="M543.333 221.191L476.216 243.564L480.845 258.221L553.362 231.991C581.135 231.991 570.334 199.59 551.048 204.991C552.076 199.333 551.974 189.098 543.333 193.419V221.191Z" fill="#A9623B" stroke="#212121" stroke-width="1.54293"/>
<path d="M278.294 278.677L347.383 255.906L352.783 269.792L279.31 295.429L278.294 278.677Z" fill="#A9623B" stroke="#212121" stroke-width="1.54293"/>
<path d="M436.1 355.423C391.046 380.727 317.542 467.565 305.198 503.052C298.184 495.37 292.643 486.381 288.954 476.655L286.416 444.674C321.903 379.871 356.639 337.679 383.64 326.879L407.555 339.892L436.1 355.423Z" fill="#52595B"/>
<path d="M407.555 339.892L383.64 326.879C356.639 337.679 321.903 379.871 286.416 444.674L288.954 476.655M407.555 339.892L436.1 355.423C391.046 380.727 317.542 467.565 305.198 503.052V503.052C298.184 495.37 292.643 486.381 288.954 476.655V476.655M407.555 339.892C352.01 374.71 299.24 449.002 288.954 476.655" stroke="#212121" stroke-width="1.54293"/>
<path d="M419.897 259.763L406.011 233.534L341.979 251.277L351.237 283.679L387.496 271.335C389.553 279.05 398.296 309.137 374.381 328.424L432.241 359.282C445.613 351.568 469.117 326.264 456.156 286.765C458.985 284.193 465.414 274.421 484.7 274.421L480.072 233.534L437.641 237.391L419.897 259.763Z" fill="#AFA389" stroke="#212121" stroke-width="1.54293"/>
<path d="M441.752 264.971L431.092 272.585L435.661 285.276L445.306 287.814L447.844 277.662L441.752 264.971Z" fill="#9B978D" stroke="#212121" stroke-width="1.01527"/>
<path d="M603.691 353.301L633.134 340.102L608.767 363.454L579.324 472.088L555.973 456.859L603.691 353.301Z" fill="#1F8AA4"/>
<path d="M622.994 360.407L644.301 347.208L626.667 370.559L605.36 479.194L588.461 463.965L622.994 360.407Z" fill="#1F8AA4"/>
<path d="M397.59 286.291L395.686 291.849H393.783L392.514 302.536L397.59 295.269V286.291Z" fill="#A9623B" stroke="#212121" stroke-width="1.01527"/>
</svg>
